<mxfile host="app.diagrams.net" modified="2023-11-25T11:29:07.335Z" agent="Mozilla/5.0 (Windows NT 10.0; Win64; x64) AppleWebKit/537.36 (KHTML, like Gecko) Chrome/114.0.0.0 Safari/537.36" etag="kKCF0YSWHUXK2uN2nGPx" version="22.1.4" type="github" pages="12">
  <diagram name="Page-1" id="us76BhKqZZmVF-_Tmoxf">
    <mxGraphModel dx="880" dy="476" grid="0" gridSize="10" guides="1" tooltips="1" connect="1" arrows="1" fold="1" page="1" pageScale="1" pageWidth="850" pageHeight="1100" math="0" shadow="0">
      <root>
        <mxCell id="0" />
        <mxCell id="1" parent="0" />
        <mxCell id="-jLsusend5jIRvVHCdzp-8" style="edgeStyle=orthogonalEdgeStyle;rounded=0;orthogonalLoop=1;jettySize=auto;html=1;exitX=1;exitY=0.5;exitDx=0;exitDy=0;entryX=0;entryY=0.5;entryDx=0;entryDy=0;" parent="1" source="-jLsusend5jIRvVHCdzp-1" target="-jLsusend5jIRvVHCdzp-2" edge="1">
          <mxGeometry relative="1" as="geometry" />
        </mxCell>
        <mxCell id="-jLsusend5jIRvVHCdzp-11" style="edgeStyle=orthogonalEdgeStyle;rounded=0;orthogonalLoop=1;jettySize=auto;html=1;exitX=0;exitY=0;exitDx=0;exitDy=0;" parent="1" source="-jLsusend5jIRvVHCdzp-1" target="-jLsusend5jIRvVHCdzp-1" edge="1">
          <mxGeometry relative="1" as="geometry">
            <mxPoint x="140" y="130" as="targetPoint" />
            <Array as="points">
              <mxPoint x="116" y="140" />
              <mxPoint x="141" y="140" />
            </Array>
          </mxGeometry>
        </mxCell>
        <mxCell id="-jLsusend5jIRvVHCdzp-1" value="A" style="ellipse;whiteSpace=wrap;html=1;" parent="1" vertex="1">
          <mxGeometry x="110" y="160" width="40" height="40" as="geometry" />
        </mxCell>
        <mxCell id="-jLsusend5jIRvVHCdzp-9" value="" style="edgeStyle=orthogonalEdgeStyle;rounded=0;orthogonalLoop=1;jettySize=auto;html=1;" parent="1" source="-jLsusend5jIRvVHCdzp-2" target="-jLsusend5jIRvVHCdzp-3" edge="1">
          <mxGeometry relative="1" as="geometry" />
        </mxCell>
        <mxCell id="-jLsusend5jIRvVHCdzp-12" style="edgeStyle=orthogonalEdgeStyle;rounded=0;orthogonalLoop=1;jettySize=auto;html=1;exitX=0;exitY=0;exitDx=0;exitDy=0;entryX=0.725;entryY=0;entryDx=0;entryDy=0;entryPerimeter=0;" parent="1" source="-jLsusend5jIRvVHCdzp-2" target="-jLsusend5jIRvVHCdzp-2" edge="1">
          <mxGeometry relative="1" as="geometry">
            <mxPoint x="250" y="130" as="targetPoint" />
            <Array as="points">
              <mxPoint x="206" y="140" />
              <mxPoint x="229" y="140" />
            </Array>
          </mxGeometry>
        </mxCell>
        <mxCell id="-jLsusend5jIRvVHCdzp-2" value="B" style="ellipse;whiteSpace=wrap;html=1;" parent="1" vertex="1">
          <mxGeometry x="200" y="160" width="40" height="40" as="geometry" />
        </mxCell>
        <mxCell id="-jLsusend5jIRvVHCdzp-4" style="edgeStyle=orthogonalEdgeStyle;rounded=0;orthogonalLoop=1;jettySize=auto;html=1;exitX=0.5;exitY=1;exitDx=0;exitDy=0;entryX=0.5;entryY=1;entryDx=0;entryDy=0;" parent="1" source="-jLsusend5jIRvVHCdzp-3" target="-jLsusend5jIRvVHCdzp-1" edge="1">
          <mxGeometry relative="1" as="geometry">
            <Array as="points">
              <mxPoint x="310" y="230" />
              <mxPoint x="130" y="230" />
            </Array>
          </mxGeometry>
        </mxCell>
        <mxCell id="-jLsusend5jIRvVHCdzp-7" style="edgeStyle=orthogonalEdgeStyle;rounded=0;orthogonalLoop=1;jettySize=auto;html=1;exitX=0;exitY=1;exitDx=0;exitDy=0;entryX=1;entryY=1;entryDx=0;entryDy=0;" parent="1" source="-jLsusend5jIRvVHCdzp-3" target="-jLsusend5jIRvVHCdzp-2" edge="1">
          <mxGeometry relative="1" as="geometry" />
        </mxCell>
        <mxCell id="-jLsusend5jIRvVHCdzp-3" value="C" style="ellipse;whiteSpace=wrap;html=1;" parent="1" vertex="1">
          <mxGeometry x="290" y="160" width="40" height="40" as="geometry" />
        </mxCell>
        <mxCell id="-jLsusend5jIRvVHCdzp-10" style="edgeStyle=orthogonalEdgeStyle;rounded=0;orthogonalLoop=1;jettySize=auto;html=1;exitX=1;exitY=0.5;exitDx=0;exitDy=0;entryX=0;entryY=0.5;entryDx=0;entryDy=0;" parent="1" edge="1">
          <mxGeometry relative="1" as="geometry">
            <mxPoint x="60" y="179.5" as="sourcePoint" />
            <mxPoint x="110" y="179.5" as="targetPoint" />
          </mxGeometry>
        </mxCell>
        <mxCell id="-jLsusend5jIRvVHCdzp-14" value="1/b" style="text;html=1;align=center;verticalAlign=middle;resizable=0;points=[];autosize=1;strokeColor=none;fillColor=none;" parent="1" vertex="1">
          <mxGeometry x="200" y="230" width="40" height="30" as="geometry" />
        </mxCell>
        <mxCell id="-jLsusend5jIRvVHCdzp-15" value="0/b" style="text;html=1;align=center;verticalAlign=middle;resizable=0;points=[];autosize=1;strokeColor=none;fillColor=none;" parent="1" vertex="1">
          <mxGeometry x="240" y="188" width="40" height="30" as="geometry" />
        </mxCell>
        <mxCell id="-jLsusend5jIRvVHCdzp-16" value="1/b" style="text;html=1;align=center;verticalAlign=middle;resizable=0;points=[];autosize=1;strokeColor=none;fillColor=none;" parent="1" vertex="1">
          <mxGeometry x="240" y="158" width="40" height="30" as="geometry" />
        </mxCell>
        <mxCell id="-jLsusend5jIRvVHCdzp-17" value="0/b" style="text;html=1;align=center;verticalAlign=middle;resizable=0;points=[];autosize=1;strokeColor=none;fillColor=none;" parent="1" vertex="1">
          <mxGeometry x="150" y="158" width="40" height="30" as="geometry" />
        </mxCell>
        <mxCell id="-jLsusend5jIRvVHCdzp-18" value="1/b" style="text;html=1;align=center;verticalAlign=middle;resizable=0;points=[];autosize=1;strokeColor=none;fillColor=none;" parent="1" vertex="1">
          <mxGeometry x="110" y="118" width="40" height="30" as="geometry" />
        </mxCell>
        <mxCell id="-jLsusend5jIRvVHCdzp-19" value="0/b" style="text;html=1;align=center;verticalAlign=middle;resizable=0;points=[];autosize=1;strokeColor=none;fillColor=none;" parent="1" vertex="1">
          <mxGeometry x="200" y="118" width="40" height="30" as="geometry" />
        </mxCell>
      </root>
    </mxGraphModel>
  </diagram>
  <diagram id="2pBGEtyUxzmlfFD9Pruh" name="60">
    <mxGraphModel dx="503" dy="272" grid="0" gridSize="10" guides="1" tooltips="1" connect="1" arrows="1" fold="1" page="1" pageScale="1" pageWidth="850" pageHeight="1100" math="0" shadow="0">
      <root>
        <mxCell id="0" />
        <mxCell id="1" parent="0" />
        <mxCell id="9Eoybtr5wvVk7xRIXEjt-7" style="edgeStyle=orthogonalEdgeStyle;rounded=0;orthogonalLoop=1;jettySize=auto;html=1;exitX=1;exitY=0.5;exitDx=0;exitDy=0;entryX=0;entryY=0.5;entryDx=0;entryDy=0;" edge="1" parent="1" source="9Eoybtr5wvVk7xRIXEjt-1" target="9Eoybtr5wvVk7xRIXEjt-2">
          <mxGeometry relative="1" as="geometry" />
        </mxCell>
        <mxCell id="9Eoybtr5wvVk7xRIXEjt-1" value="A" style="ellipse;whiteSpace=wrap;html=1;" vertex="1" parent="1">
          <mxGeometry x="67" y="158" width="40" height="40" as="geometry" />
        </mxCell>
        <mxCell id="9Eoybtr5wvVk7xRIXEjt-8" style="edgeStyle=orthogonalEdgeStyle;rounded=0;orthogonalLoop=1;jettySize=auto;html=1;exitX=1;exitY=0.5;exitDx=0;exitDy=0;entryX=0;entryY=0.5;entryDx=0;entryDy=0;" edge="1" parent="1" source="9Eoybtr5wvVk7xRIXEjt-2" target="9Eoybtr5wvVk7xRIXEjt-3">
          <mxGeometry relative="1" as="geometry" />
        </mxCell>
        <mxCell id="9Eoybtr5wvVk7xRIXEjt-2" value="B" style="ellipse;whiteSpace=wrap;html=1;" vertex="1" parent="1">
          <mxGeometry x="146" y="158" width="40" height="40" as="geometry" />
        </mxCell>
        <mxCell id="9Eoybtr5wvVk7xRIXEjt-9" style="edgeStyle=orthogonalEdgeStyle;rounded=0;orthogonalLoop=1;jettySize=auto;html=1;exitX=1;exitY=0.5;exitDx=0;exitDy=0;" edge="1" parent="1" source="9Eoybtr5wvVk7xRIXEjt-3" target="9Eoybtr5wvVk7xRIXEjt-5">
          <mxGeometry relative="1" as="geometry" />
        </mxCell>
        <mxCell id="9Eoybtr5wvVk7xRIXEjt-3" value="C" style="ellipse;whiteSpace=wrap;html=1;" vertex="1" parent="1">
          <mxGeometry x="226" y="158" width="40" height="40" as="geometry" />
        </mxCell>
        <mxCell id="9Eoybtr5wvVk7xRIXEjt-5" value="D" style="ellipse;whiteSpace=wrap;html=1;" vertex="1" parent="1">
          <mxGeometry x="306" y="158" width="40" height="40" as="geometry" />
        </mxCell>
        <mxCell id="9Eoybtr5wvVk7xRIXEjt-10" value="" style="endArrow=classic;html=1;rounded=0;entryX=0;entryY=0.5;entryDx=0;entryDy=0;" edge="1" parent="1" target="9Eoybtr5wvVk7xRIXEjt-1">
          <mxGeometry width="50" height="50" relative="1" as="geometry">
            <mxPoint x="39" y="178" as="sourcePoint" />
            <mxPoint x="460" y="339" as="targetPoint" />
          </mxGeometry>
        </mxCell>
        <mxCell id="9Eoybtr5wvVk7xRIXEjt-13" style="edgeStyle=orthogonalEdgeStyle;rounded=0;orthogonalLoop=1;jettySize=auto;html=1;exitX=0;exitY=0;exitDx=0;exitDy=0;entryX=0.815;entryY=0.018;entryDx=0;entryDy=0;entryPerimeter=0;" edge="1" parent="1" source="9Eoybtr5wvVk7xRIXEjt-2" target="9Eoybtr5wvVk7xRIXEjt-2">
          <mxGeometry relative="1" as="geometry">
            <Array as="points">
              <mxPoint x="152" y="135" />
              <mxPoint x="179" y="135" />
            </Array>
          </mxGeometry>
        </mxCell>
        <mxCell id="9Eoybtr5wvVk7xRIXEjt-14" style="edgeStyle=orthogonalEdgeStyle;rounded=0;orthogonalLoop=1;jettySize=auto;html=1;exitX=0;exitY=0;exitDx=0;exitDy=0;entryX=0.838;entryY=0.065;entryDx=0;entryDy=0;entryPerimeter=0;" edge="1" parent="1" source="9Eoybtr5wvVk7xRIXEjt-3" target="9Eoybtr5wvVk7xRIXEjt-3">
          <mxGeometry relative="1" as="geometry">
            <Array as="points">
              <mxPoint x="243" y="136" />
              <mxPoint x="271" y="136" />
            </Array>
          </mxGeometry>
        </mxCell>
      </root>
    </mxGraphModel>
  </diagram>
  <diagram id="4mZLJd7cnMfQfd7zHo40" name="61">
    <mxGraphModel dx="503" dy="239" grid="0" gridSize="10" guides="1" tooltips="1" connect="1" arrows="1" fold="1" page="1" pageScale="1" pageWidth="850" pageHeight="1100" math="0" shadow="0">
      <root>
        <mxCell id="0" />
        <mxCell id="1" parent="0" />
        <mxCell id="bUv6cIpxxFjsD_mmM97p-1" style="edgeStyle=orthogonalEdgeStyle;rounded=0;orthogonalLoop=1;jettySize=auto;html=1;exitX=1;exitY=0.5;exitDx=0;exitDy=0;entryX=0;entryY=0.5;entryDx=0;entryDy=0;" parent="1" source="bUv6cIpxxFjsD_mmM97p-2" target="bUv6cIpxxFjsD_mmM97p-4" edge="1">
          <mxGeometry relative="1" as="geometry" />
        </mxCell>
        <mxCell id="bUv6cIpxxFjsD_mmM97p-2" value="A" style="ellipse;whiteSpace=wrap;html=1;" parent="1" vertex="1">
          <mxGeometry x="67" y="158" width="40" height="40" as="geometry" />
        </mxCell>
        <mxCell id="bUv6cIpxxFjsD_mmM97p-3" style="edgeStyle=orthogonalEdgeStyle;rounded=0;orthogonalLoop=1;jettySize=auto;html=1;exitX=1;exitY=0.5;exitDx=0;exitDy=0;entryX=0;entryY=0.5;entryDx=0;entryDy=0;" parent="1" source="bUv6cIpxxFjsD_mmM97p-4" target="bUv6cIpxxFjsD_mmM97p-6" edge="1">
          <mxGeometry relative="1" as="geometry" />
        </mxCell>
        <mxCell id="bUv6cIpxxFjsD_mmM97p-4" value="B" style="ellipse;whiteSpace=wrap;html=1;" parent="1" vertex="1">
          <mxGeometry x="146" y="158" width="40" height="40" as="geometry" />
        </mxCell>
        <mxCell id="bUv6cIpxxFjsD_mmM97p-6" value="C" style="ellipse;whiteSpace=wrap;html=1;" parent="1" vertex="1">
          <mxGeometry x="226" y="158" width="40" height="40" as="geometry" />
        </mxCell>
        <mxCell id="bUv6cIpxxFjsD_mmM97p-8" value="" style="endArrow=classic;html=1;rounded=0;entryX=0;entryY=0.5;entryDx=0;entryDy=0;" parent="1" target="bUv6cIpxxFjsD_mmM97p-2" edge="1">
          <mxGeometry width="50" height="50" relative="1" as="geometry">
            <mxPoint x="39" y="178" as="sourcePoint" />
            <mxPoint x="460" y="339" as="targetPoint" />
          </mxGeometry>
        </mxCell>
        <mxCell id="bUv6cIpxxFjsD_mmM97p-9" style="edgeStyle=orthogonalEdgeStyle;rounded=0;orthogonalLoop=1;jettySize=auto;html=1;exitX=0;exitY=0;exitDx=0;exitDy=0;entryX=0.815;entryY=0.018;entryDx=0;entryDy=0;entryPerimeter=0;" parent="1" source="bUv6cIpxxFjsD_mmM97p-4" target="bUv6cIpxxFjsD_mmM97p-4" edge="1">
          <mxGeometry relative="1" as="geometry">
            <Array as="points">
              <mxPoint x="152" y="135" />
              <mxPoint x="179" y="135" />
            </Array>
          </mxGeometry>
        </mxCell>
        <mxCell id="bUv6cIpxxFjsD_mmM97p-10" style="edgeStyle=orthogonalEdgeStyle;rounded=0;orthogonalLoop=1;jettySize=auto;html=1;exitX=0;exitY=0;exitDx=0;exitDy=0;entryX=0.838;entryY=0.065;entryDx=0;entryDy=0;entryPerimeter=0;" parent="1" source="bUv6cIpxxFjsD_mmM97p-6" target="bUv6cIpxxFjsD_mmM97p-6" edge="1">
          <mxGeometry relative="1" as="geometry">
            <Array as="points">
              <mxPoint x="243" y="136" />
              <mxPoint x="271" y="136" />
            </Array>
          </mxGeometry>
        </mxCell>
        <mxCell id="PyPKKgK3qFCCAwoIWdL5-1" style="edgeStyle=orthogonalEdgeStyle;rounded=0;orthogonalLoop=1;jettySize=auto;html=1;exitX=0;exitY=0;exitDx=0;exitDy=0;entryX=1;entryY=0;entryDx=0;entryDy=0;" edge="1" parent="1" source="bUv6cIpxxFjsD_mmM97p-2" target="bUv6cIpxxFjsD_mmM97p-2">
          <mxGeometry relative="1" as="geometry">
            <Array as="points">
              <mxPoint x="73" y="139" />
              <mxPoint x="101" y="139" />
            </Array>
          </mxGeometry>
        </mxCell>
        <mxCell id="PyPKKgK3qFCCAwoIWdL5-5" value="C" style="ellipse;whiteSpace=wrap;html=1;" vertex="1" parent="1">
          <mxGeometry x="79" y="329" width="40" height="40" as="geometry" />
        </mxCell>
        <mxCell id="PyPKKgK3qFCCAwoIWdL5-6" value="A" style="ellipse;whiteSpace=wrap;html=1;" vertex="1" parent="1">
          <mxGeometry x="82.5" y="333.25" width="33" height="31.5" as="geometry" />
        </mxCell>
        <mxCell id="PyPKKgK3qFCCAwoIWdL5-8" value="C" style="ellipse;whiteSpace=wrap;html=1;" vertex="1" parent="1">
          <mxGeometry x="198" y="329" width="40" height="40" as="geometry" />
        </mxCell>
        <mxCell id="PyPKKgK3qFCCAwoIWdL5-9" value="B" style="ellipse;whiteSpace=wrap;html=1;" vertex="1" parent="1">
          <mxGeometry x="201.5" y="333.25" width="33" height="31.5" as="geometry" />
        </mxCell>
        <mxCell id="PyPKKgK3qFCCAwoIWdL5-10" value="C" style="ellipse;whiteSpace=wrap;html=1;" vertex="1" parent="1">
          <mxGeometry x="136" y="397" width="40" height="40" as="geometry" />
        </mxCell>
        <mxCell id="PyPKKgK3qFCCAwoIWdL5-11" value="C" style="ellipse;whiteSpace=wrap;html=1;" vertex="1" parent="1">
          <mxGeometry x="139.5" y="401.25" width="33" height="31.5" as="geometry" />
        </mxCell>
        <mxCell id="PyPKKgK3qFCCAwoIWdL5-14" value="" style="endArrow=classic;html=1;rounded=0;exitX=1;exitY=0.5;exitDx=0;exitDy=0;entryX=0;entryY=0.5;entryDx=0;entryDy=0;" edge="1" parent="1" source="PyPKKgK3qFCCAwoIWdL5-5" target="PyPKKgK3qFCCAwoIWdL5-8">
          <mxGeometry width="50" height="50" relative="1" as="geometry">
            <mxPoint x="163" y="351" as="sourcePoint" />
            <mxPoint x="193" y="349" as="targetPoint" />
            <Array as="points" />
          </mxGeometry>
        </mxCell>
        <mxCell id="PyPKKgK3qFCCAwoIWdL5-15" value="" style="endArrow=classic;html=1;rounded=0;exitX=0.931;exitY=0.727;exitDx=0;exitDy=0;exitPerimeter=0;entryX=0.039;entryY=0.715;entryDx=0;entryDy=0;entryPerimeter=0;" edge="1" parent="1" source="PyPKKgK3qFCCAwoIWdL5-5" target="PyPKKgK3qFCCAwoIWdL5-8">
          <mxGeometry width="50" height="50" relative="1" as="geometry">
            <mxPoint x="129" y="359" as="sourcePoint" />
            <mxPoint x="192" y="359" as="targetPoint" />
            <Array as="points" />
          </mxGeometry>
        </mxCell>
        <mxCell id="PyPKKgK3qFCCAwoIWdL5-16" value="" style="endArrow=classic;html=1;rounded=0;exitX=0.682;exitY=0.977;exitDx=0;exitDy=0;exitPerimeter=0;entryX=1.006;entryY=0.396;entryDx=0;entryDy=0;entryPerimeter=0;" edge="1" parent="1" source="PyPKKgK3qFCCAwoIWdL5-8" target="PyPKKgK3qFCCAwoIWdL5-10">
          <mxGeometry width="50" height="50" relative="1" as="geometry">
            <mxPoint x="160" y="460" as="sourcePoint" />
            <mxPoint x="210" y="410" as="targetPoint" />
          </mxGeometry>
        </mxCell>
        <mxCell id="PyPKKgK3qFCCAwoIWdL5-17" value="" style="endArrow=classic;html=1;rounded=0;exitX=0.289;exitY=0.977;exitDx=0;exitDy=0;exitPerimeter=0;" edge="1" parent="1" source="PyPKKgK3qFCCAwoIWdL5-8">
          <mxGeometry width="50" height="50" relative="1" as="geometry">
            <mxPoint x="235" y="378" as="sourcePoint" />
            <mxPoint x="172" y="404" as="targetPoint" />
          </mxGeometry>
        </mxCell>
        <mxCell id="PyPKKgK3qFCCAwoIWdL5-19" value="" style="endArrow=classic;html=1;rounded=0;exitX=1;exitY=1;exitDx=0;exitDy=0;entryX=0.256;entryY=0.015;entryDx=0;entryDy=0;entryPerimeter=0;" edge="1" parent="1" source="PyPKKgK3qFCCAwoIWdL5-5" target="PyPKKgK3qFCCAwoIWdL5-10">
          <mxGeometry width="50" height="50" relative="1" as="geometry">
            <mxPoint x="220" y="378" as="sourcePoint" />
            <mxPoint x="182" y="414" as="targetPoint" />
          </mxGeometry>
        </mxCell>
        <mxCell id="PyPKKgK3qFCCAwoIWdL5-21" value="" style="endArrow=classic;html=1;rounded=0;entryX=0.042;entryY=0.23;entryDx=0;entryDy=0;exitX=0.729;exitY=0.918;exitDx=0;exitDy=0;exitPerimeter=0;entryPerimeter=0;" edge="1" parent="1" source="PyPKKgK3qFCCAwoIWdL5-5" target="PyPKKgK3qFCCAwoIWdL5-10">
          <mxGeometry width="50" height="50" relative="1" as="geometry">
            <mxPoint x="104" y="380" as="sourcePoint" />
            <mxPoint x="156" y="408" as="targetPoint" />
          </mxGeometry>
        </mxCell>
        <mxCell id="PyPKKgK3qFCCAwoIWdL5-22" value="C" style="ellipse;whiteSpace=wrap;html=1;" vertex="1" parent="1">
          <mxGeometry x="229.5" y="162.25" width="33" height="31.5" as="geometry" />
        </mxCell>
        <mxCell id="PyPKKgK3qFCCAwoIWdL5-23" value="" style="endArrow=classic;html=1;rounded=0;entryX=0;entryY=0.5;entryDx=0;entryDy=0;" edge="1" parent="1" target="PyPKKgK3qFCCAwoIWdL5-5">
          <mxGeometry width="50" height="50" relative="1" as="geometry">
            <mxPoint x="52" y="349" as="sourcePoint" />
            <mxPoint x="185" y="379" as="targetPoint" />
          </mxGeometry>
        </mxCell>
        <mxCell id="PyPKKgK3qFCCAwoIWdL5-24" style="edgeStyle=orthogonalEdgeStyle;rounded=0;orthogonalLoop=1;jettySize=auto;html=1;exitX=0;exitY=0;exitDx=0;exitDy=0;entryX=0.837;entryY=0.099;entryDx=0;entryDy=0;entryPerimeter=0;" edge="1" parent="1" source="PyPKKgK3qFCCAwoIWdL5-5" target="PyPKKgK3qFCCAwoIWdL5-5">
          <mxGeometry relative="1" as="geometry">
            <Array as="points">
              <mxPoint x="85" y="313" />
              <mxPoint x="113" y="313" />
            </Array>
          </mxGeometry>
        </mxCell>
        <mxCell id="PyPKKgK3qFCCAwoIWdL5-25" style="edgeStyle=orthogonalEdgeStyle;rounded=0;orthogonalLoop=1;jettySize=auto;html=1;exitX=0;exitY=0;exitDx=0;exitDy=0;entryX=0.874;entryY=0.069;entryDx=0;entryDy=0;entryPerimeter=0;" edge="1" parent="1" source="PyPKKgK3qFCCAwoIWdL5-8" target="PyPKKgK3qFCCAwoIWdL5-8">
          <mxGeometry relative="1" as="geometry">
            <Array as="points">
              <mxPoint x="204" y="313" />
              <mxPoint x="233" y="313" />
            </Array>
          </mxGeometry>
        </mxCell>
        <mxCell id="PyPKKgK3qFCCAwoIWdL5-27" style="edgeStyle=orthogonalEdgeStyle;rounded=0;orthogonalLoop=1;jettySize=auto;html=1;exitX=1;exitY=1;exitDx=0;exitDy=0;entryX=0.069;entryY=0.869;entryDx=0;entryDy=0;entryPerimeter=0;" edge="1" parent="1" source="PyPKKgK3qFCCAwoIWdL5-10" target="PyPKKgK3qFCCAwoIWdL5-10">
          <mxGeometry relative="1" as="geometry">
            <Array as="points">
              <mxPoint x="170" y="452" />
              <mxPoint x="139" y="452" />
            </Array>
          </mxGeometry>
        </mxCell>
      </root>
    </mxGraphModel>
  </diagram>
  <diagram id="865PuGHX-qGIVv0y_bSH" name="62">
    <mxGraphModel dx="880" dy="476" grid="0" gridSize="10" guides="1" tooltips="1" connect="1" arrows="1" fold="1" page="1" pageScale="1" pageWidth="850" pageHeight="1100" math="0" shadow="0">
      <root>
        <mxCell id="0" />
        <mxCell id="1" parent="0" />
        <mxCell id="RYGVuDabo6nqVPwfl8Ej-1" style="edgeStyle=orthogonalEdgeStyle;rounded=0;orthogonalLoop=1;jettySize=auto;html=1;exitX=1;exitY=0.5;exitDx=0;exitDy=0;entryX=0;entryY=0.5;entryDx=0;entryDy=0;" parent="1" source="RYGVuDabo6nqVPwfl8Ej-2" target="RYGVuDabo6nqVPwfl8Ej-4" edge="1">
          <mxGeometry relative="1" as="geometry" />
        </mxCell>
        <mxCell id="RYGVuDabo6nqVPwfl8Ej-2" value="A" style="ellipse;whiteSpace=wrap;html=1;" parent="1" vertex="1">
          <mxGeometry x="67" y="158" width="40" height="40" as="geometry" />
        </mxCell>
        <mxCell id="RYGVuDabo6nqVPwfl8Ej-4" value="B" style="ellipse;whiteSpace=wrap;html=1;" parent="1" vertex="1">
          <mxGeometry x="155" y="158" width="40" height="40" as="geometry" />
        </mxCell>
        <mxCell id="RYGVuDabo6nqVPwfl8Ej-5" value="D" style="ellipse;whiteSpace=wrap;html=1;" parent="1" vertex="1">
          <mxGeometry x="341" y="158" width="40" height="40" as="geometry" />
        </mxCell>
        <mxCell id="RYGVuDabo6nqVPwfl8Ej-6" value="" style="endArrow=classic;html=1;rounded=0;entryX=0;entryY=0.5;entryDx=0;entryDy=0;" parent="1" target="RYGVuDabo6nqVPwfl8Ej-2" edge="1">
          <mxGeometry width="50" height="50" relative="1" as="geometry">
            <mxPoint x="39" y="178" as="sourcePoint" />
            <mxPoint x="460" y="339" as="targetPoint" />
          </mxGeometry>
        </mxCell>
        <mxCell id="RYGVuDabo6nqVPwfl8Ej-10" value="D" style="ellipse;whiteSpace=wrap;html=1;" parent="1" vertex="1">
          <mxGeometry x="344.5" y="162.25" width="33" height="31.5" as="geometry" />
        </mxCell>
        <mxCell id="RYGVuDabo6nqVPwfl8Ej-11" value="C" style="ellipse;whiteSpace=wrap;html=1;" parent="1" vertex="1">
          <mxGeometry x="248" y="158" width="40" height="40" as="geometry" />
        </mxCell>
        <mxCell id="RYGVuDabo6nqVPwfl8Ej-12" value="" style="endArrow=classic;html=1;rounded=0;exitX=1;exitY=0.5;exitDx=0;exitDy=0;entryX=0;entryY=0.5;entryDx=0;entryDy=0;" parent="1" source="RYGVuDabo6nqVPwfl8Ej-4" target="RYGVuDabo6nqVPwfl8Ej-11" edge="1">
          <mxGeometry width="50" height="50" relative="1" as="geometry">
            <mxPoint x="399" y="246" as="sourcePoint" />
            <mxPoint x="449" y="196" as="targetPoint" />
          </mxGeometry>
        </mxCell>
        <mxCell id="RYGVuDabo6nqVPwfl8Ej-13" value="" style="endArrow=classic;html=1;rounded=0;exitX=1;exitY=0.5;exitDx=0;exitDy=0;entryX=0;entryY=0.5;entryDx=0;entryDy=0;" parent="1" source="RYGVuDabo6nqVPwfl8Ej-11" target="RYGVuDabo6nqVPwfl8Ej-5" edge="1">
          <mxGeometry width="50" height="50" relative="1" as="geometry">
            <mxPoint x="205" y="188" as="sourcePoint" />
            <mxPoint x="332" y="176" as="targetPoint" />
          </mxGeometry>
        </mxCell>
        <mxCell id="RYGVuDabo6nqVPwfl8Ej-18" style="edgeStyle=orthogonalEdgeStyle;rounded=0;orthogonalLoop=1;jettySize=auto;html=1;exitX=0;exitY=0;exitDx=0;exitDy=0;entryX=1;entryY=0;entryDx=0;entryDy=0;" parent="1" source="RYGVuDabo6nqVPwfl8Ej-4" target="RYGVuDabo6nqVPwfl8Ej-4" edge="1">
          <mxGeometry relative="1" as="geometry">
            <Array as="points">
              <mxPoint x="161" y="140" />
              <mxPoint x="189" y="140" />
            </Array>
          </mxGeometry>
        </mxCell>
        <mxCell id="RYGVuDabo6nqVPwfl8Ej-19" style="edgeStyle=orthogonalEdgeStyle;rounded=0;orthogonalLoop=1;jettySize=auto;html=1;exitX=0;exitY=0;exitDx=0;exitDy=0;entryX=1;entryY=0;entryDx=0;entryDy=0;" parent="1" source="RYGVuDabo6nqVPwfl8Ej-11" target="RYGVuDabo6nqVPwfl8Ej-11" edge="1">
          <mxGeometry relative="1" as="geometry">
            <Array as="points">
              <mxPoint x="254" y="142" />
              <mxPoint x="282" y="142" />
            </Array>
          </mxGeometry>
        </mxCell>
        <mxCell id="RYGVuDabo6nqVPwfl8Ej-26" style="edgeStyle=orthogonalEdgeStyle;rounded=0;orthogonalLoop=1;jettySize=auto;html=1;exitX=1;exitY=0.5;exitDx=0;exitDy=0;" parent="1" source="RYGVuDabo6nqVPwfl8Ej-20" target="RYGVuDabo6nqVPwfl8Ej-21" edge="1">
          <mxGeometry relative="1" as="geometry" />
        </mxCell>
        <mxCell id="RYGVuDabo6nqVPwfl8Ej-20" value="A" style="ellipse;whiteSpace=wrap;html=1;" parent="1" vertex="1">
          <mxGeometry x="155" y="467" width="40" height="40" as="geometry" />
        </mxCell>
        <mxCell id="DcJhFxHaylPNBSfPMB2L-4" style="edgeStyle=orthogonalEdgeStyle;rounded=0;orthogonalLoop=1;jettySize=auto;html=1;exitX=0;exitY=0;exitDx=0;exitDy=0;" edge="1" parent="1" source="RYGVuDabo6nqVPwfl8Ej-21">
          <mxGeometry relative="1" as="geometry">
            <mxPoint x="329.07692307692304" y="466.0769230769231" as="targetPoint" />
            <Array as="points">
              <mxPoint x="314" y="445" />
              <mxPoint x="329" y="445" />
            </Array>
          </mxGeometry>
        </mxCell>
        <mxCell id="RYGVuDabo6nqVPwfl8Ej-21" value="B" style="ellipse;whiteSpace=wrap;html=1;" parent="1" vertex="1">
          <mxGeometry x="308" y="467" width="40" height="40" as="geometry" />
        </mxCell>
        <mxCell id="RYGVuDabo6nqVPwfl8Ej-22" value="C" style="ellipse;whiteSpace=wrap;html=1;" parent="1" vertex="1">
          <mxGeometry x="396" y="334" width="40" height="40" as="geometry" />
        </mxCell>
        <mxCell id="RYGVuDabo6nqVPwfl8Ej-23" value="A" style="ellipse;whiteSpace=wrap;html=1;" parent="1" vertex="1">
          <mxGeometry x="417" y="540" width="40" height="40" as="geometry" />
        </mxCell>
        <mxCell id="RYGVuDabo6nqVPwfl8Ej-25" value="" style="endArrow=classic;html=1;rounded=0;exitX=0.5;exitY=0;exitDx=0;exitDy=0;entryX=0;entryY=0.5;entryDx=0;entryDy=0;" parent="1" source="RYGVuDabo6nqVPwfl8Ej-20" target="RYGVuDabo6nqVPwfl8Ej-22" edge="1">
          <mxGeometry width="50" height="50" relative="1" as="geometry">
            <mxPoint x="328" y="373" as="sourcePoint" />
            <mxPoint x="378" y="323" as="targetPoint" />
          </mxGeometry>
        </mxCell>
        <mxCell id="RYGVuDabo6nqVPwfl8Ej-27" value="" style="endArrow=classic;html=1;rounded=0;entryX=0;entryY=1;entryDx=0;entryDy=0;exitX=0.611;exitY=0.007;exitDx=0;exitDy=0;exitPerimeter=0;" parent="1" source="RYGVuDabo6nqVPwfl8Ej-21" target="RYGVuDabo6nqVPwfl8Ej-22" edge="1">
          <mxGeometry width="50" height="50" relative="1" as="geometry">
            <mxPoint x="335" y="464" as="sourcePoint" />
            <mxPoint x="396" y="382" as="targetPoint" />
          </mxGeometry>
        </mxCell>
        <mxCell id="RYGVuDabo6nqVPwfl8Ej-28" value="" style="endArrow=classic;html=1;rounded=0;entryX=0.5;entryY=1;entryDx=0;entryDy=0;exitX=1;exitY=0;exitDx=0;exitDy=0;" parent="1" source="RYGVuDabo6nqVPwfl8Ej-21" target="RYGVuDabo6nqVPwfl8Ej-22" edge="1">
          <mxGeometry width="50" height="50" relative="1" as="geometry">
            <mxPoint x="342" y="477" as="sourcePoint" />
            <mxPoint x="412" y="378" as="targetPoint" />
          </mxGeometry>
        </mxCell>
        <mxCell id="RYGVuDabo6nqVPwfl8Ej-30" value="" style="endArrow=classic;html=1;rounded=0;entryX=0.5;entryY=0;entryDx=0;entryDy=0;exitX=1;exitY=0.5;exitDx=0;exitDy=0;" parent="1" source="RYGVuDabo6nqVPwfl8Ej-21" edge="1">
          <mxGeometry width="50" height="50" relative="1" as="geometry">
            <mxPoint x="334.00000000000006" y="486.99999999999994" as="sourcePoint" />
            <mxPoint x="425.44" y="546.56" as="targetPoint" />
          </mxGeometry>
        </mxCell>
        <mxCell id="RYGVuDabo6nqVPwfl8Ej-31" value="" style="endArrow=classic;html=1;rounded=0;exitX=1;exitY=1;exitDx=0;exitDy=0;entryX=0.5;entryY=0;entryDx=0;entryDy=0;" parent="1" source="RYGVuDabo6nqVPwfl8Ej-22" target="RYGVuDabo6nqVPwfl8Ej-23" edge="1">
          <mxGeometry width="50" height="50" relative="1" as="geometry">
            <mxPoint x="358" y="497" as="sourcePoint" />
            <mxPoint x="443" y="532" as="targetPoint" />
          </mxGeometry>
        </mxCell>
        <mxCell id="RYGVuDabo6nqVPwfl8Ej-33" value="" style="endArrow=classic;html=1;rounded=0;" parent="1" target="RYGVuDabo6nqVPwfl8Ej-20" edge="1">
          <mxGeometry width="50" height="50" relative="1" as="geometry">
            <mxPoint x="121" y="485" as="sourcePoint" />
            <mxPoint x="336" y="461" as="targetPoint" />
          </mxGeometry>
        </mxCell>
        <mxCell id="DcJhFxHaylPNBSfPMB2L-2" value="D" style="ellipse;whiteSpace=wrap;html=1;" vertex="1" parent="1">
          <mxGeometry x="420.5" y="544.25" width="33" height="31.5" as="geometry" />
        </mxCell>
        <mxCell id="DcJhFxHaylPNBSfPMB2L-3" style="edgeStyle=orthogonalEdgeStyle;rounded=0;orthogonalLoop=1;jettySize=auto;html=1;exitX=0;exitY=0;exitDx=0;exitDy=0;entryX=1;entryY=0;entryDx=0;entryDy=0;" edge="1" parent="1" source="RYGVuDabo6nqVPwfl8Ej-22" target="RYGVuDabo6nqVPwfl8Ej-22">
          <mxGeometry relative="1" as="geometry">
            <Array as="points">
              <mxPoint x="402" y="324" />
              <mxPoint x="430" y="324" />
            </Array>
          </mxGeometry>
        </mxCell>
        <mxCell id="DcJhFxHaylPNBSfPMB2L-5" value="0" style="text;html=1;align=center;verticalAlign=middle;resizable=0;points=[];autosize=1;strokeColor=none;fillColor=none;" vertex="1" parent="1">
          <mxGeometry x="252" y="398" width="25" height="26" as="geometry" />
        </mxCell>
        <mxCell id="DcJhFxHaylPNBSfPMB2L-6" value="0" style="text;html=1;align=center;verticalAlign=middle;resizable=0;points=[];autosize=1;strokeColor=none;fillColor=none;" vertex="1" parent="1">
          <mxGeometry x="246" y="468" width="25" height="26" as="geometry" />
        </mxCell>
        <mxCell id="DcJhFxHaylPNBSfPMB2L-7" value="1" style="text;html=1;align=center;verticalAlign=middle;resizable=0;points=[];autosize=1;strokeColor=none;fillColor=none;" vertex="1" parent="1">
          <mxGeometry x="308" y="424" width="25" height="26" as="geometry" />
        </mxCell>
        <mxCell id="DcJhFxHaylPNBSfPMB2L-8" value="0" style="text;html=1;align=center;verticalAlign=middle;resizable=0;points=[];autosize=1;strokeColor=none;fillColor=none;" vertex="1" parent="1">
          <mxGeometry x="347" y="398" width="25" height="26" as="geometry" />
        </mxCell>
        <mxCell id="DcJhFxHaylPNBSfPMB2L-9" value="1" style="text;html=1;align=center;verticalAlign=middle;resizable=0;points=[];autosize=1;strokeColor=none;fillColor=none;" vertex="1" parent="1">
          <mxGeometry x="368" y="430" width="25" height="26" as="geometry" />
        </mxCell>
        <mxCell id="DcJhFxHaylPNBSfPMB2L-10" value="1" style="text;html=1;align=center;verticalAlign=middle;resizable=0;points=[];autosize=1;strokeColor=none;fillColor=none;" vertex="1" parent="1">
          <mxGeometry x="360" y="511" width="25" height="26" as="geometry" />
        </mxCell>
        <mxCell id="DcJhFxHaylPNBSfPMB2L-12" value="1" style="text;html=1;align=center;verticalAlign=middle;resizable=0;points=[];autosize=1;strokeColor=none;fillColor=none;" vertex="1" parent="1">
          <mxGeometry x="436" y="456" width="25" height="26" as="geometry" />
        </mxCell>
        <mxCell id="DcJhFxHaylPNBSfPMB2L-13" value="0" style="text;html=1;align=center;verticalAlign=middle;resizable=0;points=[];autosize=1;strokeColor=none;fillColor=none;" vertex="1" parent="1">
          <mxGeometry x="403.5" y="304" width="25" height="26" as="geometry" />
        </mxCell>
        <mxCell id="DcJhFxHaylPNBSfPMB2L-14" value="0" style="text;html=1;align=center;verticalAlign=middle;resizable=0;points=[];autosize=1;strokeColor=none;fillColor=none;" vertex="1" parent="1">
          <mxGeometry x="114" y="153" width="25" height="26" as="geometry" />
        </mxCell>
        <mxCell id="DcJhFxHaylPNBSfPMB2L-15" value="1" style="text;html=1;align=center;verticalAlign=middle;resizable=0;points=[];autosize=1;strokeColor=none;fillColor=none;" vertex="1" parent="1">
          <mxGeometry x="165" y="121" width="25" height="26" as="geometry" />
        </mxCell>
        <mxCell id="DcJhFxHaylPNBSfPMB2L-16" value="0" style="text;html=1;align=center;verticalAlign=middle;resizable=0;points=[];autosize=1;strokeColor=none;fillColor=none;" vertex="1" parent="1">
          <mxGeometry x="256" y="122" width="25" height="26" as="geometry" />
        </mxCell>
        <mxCell id="DcJhFxHaylPNBSfPMB2L-17" value="1" style="text;html=1;align=center;verticalAlign=middle;resizable=0;points=[];autosize=1;strokeColor=none;fillColor=none;" vertex="1" parent="1">
          <mxGeometry x="304" y="151" width="25" height="26" as="geometry" />
        </mxCell>
      </root>
    </mxGraphModel>
  </diagram>
  <diagram id="KPyFB40cissfQHHH2qgm" name="63">
    <mxGraphModel dx="880" dy="419" grid="0" gridSize="10" guides="1" tooltips="1" connect="1" arrows="1" fold="1" page="1" pageScale="1" pageWidth="850" pageHeight="1100" math="0" shadow="0">
      <root>
        <mxCell id="0" />
        <mxCell id="1" parent="0" />
        <mxCell id="TWUaySZ6ygKVrqRB9rPH-1" value="A" style="ellipse;whiteSpace=wrap;html=1;" parent="1" vertex="1">
          <mxGeometry x="94" y="144" width="40" height="40" as="geometry" />
        </mxCell>
        <mxCell id="TWUaySZ6ygKVrqRB9rPH-2" value="A" style="ellipse;whiteSpace=wrap;html=1;" parent="1" vertex="1">
          <mxGeometry x="221" y="240" width="40" height="40" as="geometry" />
        </mxCell>
        <mxCell id="TWUaySZ6ygKVrqRB9rPH-3" value="A" style="ellipse;whiteSpace=wrap;html=1;" parent="1" vertex="1">
          <mxGeometry x="288" y="147" width="40" height="40" as="geometry" />
        </mxCell>
        <mxCell id="eA5ZzttgKK7y6V39ib1T-1" value="D" style="ellipse;whiteSpace=wrap;html=1;" parent="1" vertex="1">
          <mxGeometry x="370" y="172" width="33" height="31.5" as="geometry" />
        </mxCell>
      </root>
    </mxGraphModel>
  </diagram>
  <diagram id="TsxxLzxHw8BeAh0HqFow" name="73">
    <mxGraphModel dx="880" dy="419" grid="0" gridSize="10" guides="1" tooltips="1" connect="1" arrows="1" fold="1" page="1" pageScale="1" pageWidth="850" pageHeight="1100" math="0" shadow="0">
      <root>
        <mxCell id="0" />
        <mxCell id="1" parent="0" />
        <mxCell id="hWTiEeKaj2WMi1GRiKsa-2" style="edgeStyle=orthogonalEdgeStyle;rounded=0;orthogonalLoop=1;jettySize=auto;html=1;exitX=1;exitY=0;exitDx=0;exitDy=0;entryX=0;entryY=0;entryDx=0;entryDy=0;" parent="1" source="Rf7_P57SwqLwID9mH22A-1" target="Rf7_P57SwqLwID9mH22A-2" edge="1">
          <mxGeometry relative="1" as="geometry" />
        </mxCell>
        <mxCell id="Rf7_P57SwqLwID9mH22A-1" value="q1" style="ellipse;whiteSpace=wrap;html=1;" parent="1" vertex="1">
          <mxGeometry x="102" y="144" width="40" height="40" as="geometry" />
        </mxCell>
        <mxCell id="hWTiEeKaj2WMi1GRiKsa-3" style="edgeStyle=orthogonalEdgeStyle;rounded=0;orthogonalLoop=1;jettySize=auto;html=1;exitX=1;exitY=0;exitDx=0;exitDy=0;entryX=0;entryY=0;entryDx=0;entryDy=0;" parent="1" source="Rf7_P57SwqLwID9mH22A-2" target="Rf7_P57SwqLwID9mH22A-3" edge="1">
          <mxGeometry relative="1" as="geometry">
            <mxPoint x="359.2068965517242" y="149.62068965517244" as="targetPoint" />
          </mxGeometry>
        </mxCell>
        <mxCell id="hWTiEeKaj2WMi1GRiKsa-5" style="edgeStyle=orthogonalEdgeStyle;rounded=0;orthogonalLoop=1;jettySize=auto;html=1;exitX=0;exitY=1;exitDx=0;exitDy=0;entryX=1;entryY=1;entryDx=0;entryDy=0;" parent="1" source="Rf7_P57SwqLwID9mH22A-2" target="Rf7_P57SwqLwID9mH22A-1" edge="1">
          <mxGeometry relative="1" as="geometry" />
        </mxCell>
        <mxCell id="Rf7_P57SwqLwID9mH22A-2" value="q2" style="ellipse;whiteSpace=wrap;html=1;" parent="1" vertex="1">
          <mxGeometry x="228" y="144" width="40" height="40" as="geometry" />
        </mxCell>
        <mxCell id="hWTiEeKaj2WMi1GRiKsa-4" style="edgeStyle=orthogonalEdgeStyle;rounded=0;orthogonalLoop=1;jettySize=auto;html=1;exitX=0;exitY=1;exitDx=0;exitDy=0;entryX=1;entryY=1;entryDx=0;entryDy=0;" parent="1" source="Rf7_P57SwqLwID9mH22A-3" target="Rf7_P57SwqLwID9mH22A-2" edge="1">
          <mxGeometry relative="1" as="geometry" />
        </mxCell>
        <mxCell id="Rf7_P57SwqLwID9mH22A-3" value="" style="ellipse;whiteSpace=wrap;html=1;" parent="1" vertex="1">
          <mxGeometry x="365" y="144" width="40" height="40" as="geometry" />
        </mxCell>
        <mxCell id="hWTiEeKaj2WMi1GRiKsa-1" value="q3" style="ellipse;whiteSpace=wrap;html=1;" parent="1" vertex="1">
          <mxGeometry x="368.5" y="148.25" width="33" height="31.5" as="geometry" />
        </mxCell>
        <mxCell id="hWTiEeKaj2WMi1GRiKsa-6" style="edgeStyle=orthogonalEdgeStyle;rounded=0;orthogonalLoop=1;jettySize=auto;html=1;exitX=0;exitY=0;exitDx=0;exitDy=0;entryX=0.815;entryY=0.02;entryDx=0;entryDy=0;entryPerimeter=0;" parent="1" source="Rf7_P57SwqLwID9mH22A-2" target="Rf7_P57SwqLwID9mH22A-2" edge="1">
          <mxGeometry relative="1" as="geometry">
            <Array as="points">
              <mxPoint x="234" y="127" />
              <mxPoint x="261" y="127" />
            </Array>
          </mxGeometry>
        </mxCell>
        <mxCell id="hWTiEeKaj2WMi1GRiKsa-7" style="edgeStyle=orthogonalEdgeStyle;rounded=0;orthogonalLoop=1;jettySize=auto;html=1;exitX=0;exitY=0;exitDx=0;exitDy=0;entryX=1;entryY=0;entryDx=0;entryDy=0;" parent="1" source="Rf7_P57SwqLwID9mH22A-1" target="Rf7_P57SwqLwID9mH22A-1" edge="1">
          <mxGeometry relative="1" as="geometry">
            <Array as="points">
              <mxPoint x="108" y="128" />
              <mxPoint x="136" y="128" />
            </Array>
          </mxGeometry>
        </mxCell>
        <mxCell id="hWTiEeKaj2WMi1GRiKsa-8" value="" style="endArrow=classic;html=1;rounded=0;" parent="1" target="Rf7_P57SwqLwID9mH22A-1" edge="1">
          <mxGeometry width="50" height="50" relative="1" as="geometry">
            <mxPoint x="75" y="164" as="sourcePoint" />
            <mxPoint x="354" y="175" as="targetPoint" />
          </mxGeometry>
        </mxCell>
        <mxCell id="hWTiEeKaj2WMi1GRiKsa-10" value="a" style="text;html=1;align=center;verticalAlign=middle;resizable=0;points=[];autosize=1;strokeColor=none;fillColor=none;" parent="1" vertex="1">
          <mxGeometry x="107" y="108" width="25" height="26" as="geometry" />
        </mxCell>
        <mxCell id="hWTiEeKaj2WMi1GRiKsa-11" value="a" style="text;html=1;align=center;verticalAlign=middle;resizable=0;points=[];autosize=1;strokeColor=none;fillColor=none;" parent="1" vertex="1">
          <mxGeometry x="172" y="130" width="25" height="26" as="geometry" />
        </mxCell>
        <mxCell id="hWTiEeKaj2WMi1GRiKsa-12" value="b" style="text;html=1;align=center;verticalAlign=middle;resizable=0;points=[];autosize=1;strokeColor=none;fillColor=none;" parent="1" vertex="1">
          <mxGeometry x="232" y="108" width="25" height="26" as="geometry" />
        </mxCell>
        <mxCell id="hWTiEeKaj2WMi1GRiKsa-13" value="a" style="text;html=1;align=center;verticalAlign=middle;resizable=0;points=[];autosize=1;strokeColor=none;fillColor=none;" parent="1" vertex="1">
          <mxGeometry x="300" y="130" width="25" height="26" as="geometry" />
        </mxCell>
        <mxCell id="hWTiEeKaj2WMi1GRiKsa-14" value="b" style="text;html=1;align=center;verticalAlign=middle;resizable=0;points=[];autosize=1;strokeColor=none;fillColor=none;" parent="1" vertex="1">
          <mxGeometry x="174" y="175" width="25" height="26" as="geometry" />
        </mxCell>
        <mxCell id="hWTiEeKaj2WMi1GRiKsa-15" value="b" style="text;html=1;align=center;verticalAlign=middle;resizable=0;points=[];autosize=1;strokeColor=none;fillColor=none;" parent="1" vertex="1">
          <mxGeometry x="311" y="174" width="25" height="26" as="geometry" />
        </mxCell>
      </root>
    </mxGraphModel>
  </diagram>
  <diagram id="AfbVgNYM9q2wnubzbet3" name="75">
    <mxGraphModel dx="880" dy="419" grid="0" gridSize="10" guides="1" tooltips="1" connect="1" arrows="1" fold="1" page="1" pageScale="1" pageWidth="850" pageHeight="1100" math="0" shadow="0">
      <root>
        <mxCell id="0" />
        <mxCell id="1" parent="0" />
        <mxCell id="LQw_ZT4DDTiPNFq3gFAQ-2" style="edgeStyle=orthogonalEdgeStyle;rounded=0;orthogonalLoop=1;jettySize=auto;html=1;exitX=1;exitY=0;exitDx=0;exitDy=0;entryX=0;entryY=0;entryDx=0;entryDy=0;" edge="1" parent="1" source="IhSHLlbWxe4q7iEFfTyV-1" target="IhSHLlbWxe4q7iEFfTyV-2">
          <mxGeometry relative="1" as="geometry" />
        </mxCell>
        <mxCell id="IhSHLlbWxe4q7iEFfTyV-1" value="q2" style="ellipse;whiteSpace=wrap;html=1;" vertex="1" parent="1">
          <mxGeometry x="60" y="110" width="40" height="40" as="geometry" />
        </mxCell>
        <mxCell id="LQw_ZT4DDTiPNFq3gFAQ-3" style="edgeStyle=orthogonalEdgeStyle;rounded=0;orthogonalLoop=1;jettySize=auto;html=1;exitX=0;exitY=1;exitDx=0;exitDy=0;entryX=1;entryY=1;entryDx=0;entryDy=0;" edge="1" parent="1" source="IhSHLlbWxe4q7iEFfTyV-2" target="IhSHLlbWxe4q7iEFfTyV-1">
          <mxGeometry relative="1" as="geometry" />
        </mxCell>
        <mxCell id="LQw_ZT4DDTiPNFq3gFAQ-4" style="edgeStyle=orthogonalEdgeStyle;rounded=0;orthogonalLoop=1;jettySize=auto;html=1;exitX=0.5;exitY=1;exitDx=0;exitDy=0;entryX=0.5;entryY=0;entryDx=0;entryDy=0;" edge="1" parent="1" source="IhSHLlbWxe4q7iEFfTyV-2" target="IhSHLlbWxe4q7iEFfTyV-3">
          <mxGeometry relative="1" as="geometry" />
        </mxCell>
        <mxCell id="IhSHLlbWxe4q7iEFfTyV-2" value="q2" style="ellipse;whiteSpace=wrap;html=1;" vertex="1" parent="1">
          <mxGeometry x="180" y="110" width="40" height="40" as="geometry" />
        </mxCell>
        <mxCell id="IhSHLlbWxe4q7iEFfTyV-3" value="q4" style="ellipse;whiteSpace=wrap;html=1;" vertex="1" parent="1">
          <mxGeometry x="180" y="220" width="40" height="40" as="geometry" />
        </mxCell>
        <mxCell id="LQw_ZT4DDTiPNFq3gFAQ-5" style="edgeStyle=orthogonalEdgeStyle;rounded=0;orthogonalLoop=1;jettySize=auto;html=1;exitX=1;exitY=0.5;exitDx=0;exitDy=0;" edge="1" parent="1" source="IhSHLlbWxe4q7iEFfTyV-4" target="IhSHLlbWxe4q7iEFfTyV-3">
          <mxGeometry relative="1" as="geometry" />
        </mxCell>
        <mxCell id="LQw_ZT4DDTiPNFq3gFAQ-6" style="edgeStyle=orthogonalEdgeStyle;rounded=0;orthogonalLoop=1;jettySize=auto;html=1;exitX=0;exitY=0;exitDx=0;exitDy=0;entryX=0;entryY=1;entryDx=0;entryDy=0;" edge="1" parent="1" source="IhSHLlbWxe4q7iEFfTyV-4" target="IhSHLlbWxe4q7iEFfTyV-1">
          <mxGeometry relative="1" as="geometry" />
        </mxCell>
        <mxCell id="IhSHLlbWxe4q7iEFfTyV-4" value="q3" style="ellipse;whiteSpace=wrap;html=1;" vertex="1" parent="1">
          <mxGeometry x="60" y="220" width="40" height="40" as="geometry" />
        </mxCell>
        <mxCell id="LQw_ZT4DDTiPNFq3gFAQ-1" value="q1" style="ellipse;whiteSpace=wrap;html=1;" vertex="1" parent="1">
          <mxGeometry x="63.5" y="114.25" width="33" height="31.5" as="geometry" />
        </mxCell>
        <mxCell id="LQw_ZT4DDTiPNFq3gFAQ-7" style="edgeStyle=orthogonalEdgeStyle;rounded=0;orthogonalLoop=1;jettySize=auto;html=1;exitX=1;exitY=1;exitDx=0;exitDy=0;entryX=1;entryY=0;entryDx=0;entryDy=0;" edge="1" parent="1" source="IhSHLlbWxe4q7iEFfTyV-1" target="IhSHLlbWxe4q7iEFfTyV-4">
          <mxGeometry relative="1" as="geometry" />
        </mxCell>
        <mxCell id="LQw_ZT4DDTiPNFq3gFAQ-8" style="edgeStyle=orthogonalEdgeStyle;rounded=0;orthogonalLoop=1;jettySize=auto;html=1;exitX=1;exitY=0.5;exitDx=0;exitDy=0;entryX=0.5;entryY=1;entryDx=0;entryDy=0;" edge="1" parent="1" source="IhSHLlbWxe4q7iEFfTyV-3" target="IhSHLlbWxe4q7iEFfTyV-3">
          <mxGeometry relative="1" as="geometry">
            <Array as="points">
              <mxPoint x="240" y="240" />
              <mxPoint x="240" y="270" />
              <mxPoint x="200" y="270" />
            </Array>
          </mxGeometry>
        </mxCell>
        <mxCell id="LQw_ZT4DDTiPNFq3gFAQ-9" value="" style="endArrow=classic;html=1;rounded=0;entryX=0;entryY=0.5;entryDx=0;entryDy=0;" edge="1" parent="1" target="IhSHLlbWxe4q7iEFfTyV-1">
          <mxGeometry width="50" height="50" relative="1" as="geometry">
            <mxPoint x="20" y="130" as="sourcePoint" />
            <mxPoint x="450" y="200" as="targetPoint" />
          </mxGeometry>
        </mxCell>
        <mxCell id="LQw_ZT4DDTiPNFq3gFAQ-10" value="a" style="text;html=1;align=center;verticalAlign=middle;resizable=0;points=[];autosize=1;strokeColor=none;fillColor=none;" vertex="1" parent="1">
          <mxGeometry x="45" y="168" width="30" height="30" as="geometry" />
        </mxCell>
        <mxCell id="LQw_ZT4DDTiPNFq3gFAQ-13" value="b" style="text;html=1;align=center;verticalAlign=middle;resizable=0;points=[];autosize=1;strokeColor=none;fillColor=none;" vertex="1" parent="1">
          <mxGeometry x="90" y="168" width="30" height="30" as="geometry" />
        </mxCell>
        <mxCell id="LQw_ZT4DDTiPNFq3gFAQ-14" value="b" style="text;html=1;align=center;verticalAlign=middle;resizable=0;points=[];autosize=1;strokeColor=none;fillColor=none;" vertex="1" parent="1">
          <mxGeometry x="125" y="138" width="30" height="30" as="geometry" />
        </mxCell>
        <mxCell id="LQw_ZT4DDTiPNFq3gFAQ-16" value="a" style="text;html=1;align=center;verticalAlign=middle;resizable=0;points=[];autosize=1;strokeColor=none;fillColor=none;" vertex="1" parent="1">
          <mxGeometry x="123" y="93.25" width="30" height="30" as="geometry" />
        </mxCell>
        <mxCell id="LQw_ZT4DDTiPNFq3gFAQ-18" value="a" style="text;html=1;align=center;verticalAlign=middle;resizable=0;points=[];autosize=1;strokeColor=none;fillColor=none;" vertex="1" parent="1">
          <mxGeometry x="195" y="168" width="30" height="30" as="geometry" />
        </mxCell>
        <mxCell id="LQw_ZT4DDTiPNFq3gFAQ-19" value="a,b" style="text;html=1;align=center;verticalAlign=middle;resizable=0;points=[];autosize=1;strokeColor=none;fillColor=none;" vertex="1" parent="1">
          <mxGeometry x="230" y="238" width="40" height="30" as="geometry" />
        </mxCell>
      </root>
    </mxGraphModel>
  </diagram>
  <diagram id="ZwaqMkc_uLyPAfbTf1jI" name="76">
    <mxGraphModel dx="419" dy="200" grid="0" gridSize="10" guides="1" tooltips="1" connect="1" arrows="1" fold="1" page="1" pageScale="1" pageWidth="850" pageHeight="1100" math="0" shadow="0">
      <root>
        <mxCell id="0" />
        <mxCell id="1" parent="0" />
        <mxCell id="PmlArjGNWuvPQ6ODU4hp-4" style="edgeStyle=orthogonalEdgeStyle;rounded=0;orthogonalLoop=1;jettySize=auto;html=1;exitX=1;exitY=0.5;exitDx=0;exitDy=0;entryX=0;entryY=0.5;entryDx=0;entryDy=0;" edge="1" parent="1" source="PmlArjGNWuvPQ6ODU4hp-1" target="PmlArjGNWuvPQ6ODU4hp-2">
          <mxGeometry relative="1" as="geometry" />
        </mxCell>
        <mxCell id="PmlArjGNWuvPQ6ODU4hp-1" value="q3" style="ellipse;whiteSpace=wrap;html=1;" vertex="1" parent="1">
          <mxGeometry x="74" y="107" width="40" height="40" as="geometry" />
        </mxCell>
        <mxCell id="PmlArjGNWuvPQ6ODU4hp-5" style="edgeStyle=orthogonalEdgeStyle;rounded=0;orthogonalLoop=1;jettySize=auto;html=1;exitX=1;exitY=0.5;exitDx=0;exitDy=0;entryX=0;entryY=0.5;entryDx=0;entryDy=0;" edge="1" parent="1" source="PmlArjGNWuvPQ6ODU4hp-2" target="PmlArjGNWuvPQ6ODU4hp-3">
          <mxGeometry relative="1" as="geometry" />
        </mxCell>
        <mxCell id="PmlArjGNWuvPQ6ODU4hp-2" value="q3" style="ellipse;whiteSpace=wrap;html=1;" vertex="1" parent="1">
          <mxGeometry x="193" y="107" width="40" height="40" as="geometry" />
        </mxCell>
        <mxCell id="PmlArjGNWuvPQ6ODU4hp-3" value="q3" style="ellipse;whiteSpace=wrap;html=1;" vertex="1" parent="1">
          <mxGeometry x="318" y="107" width="40" height="40" as="geometry" />
        </mxCell>
        <mxCell id="PmlArjGNWuvPQ6ODU4hp-6" style="edgeStyle=orthogonalEdgeStyle;rounded=0;orthogonalLoop=1;jettySize=auto;html=1;exitX=0;exitY=0;exitDx=0;exitDy=0;entryX=1;entryY=0;entryDx=0;entryDy=0;" edge="1" parent="1" source="PmlArjGNWuvPQ6ODU4hp-1" target="PmlArjGNWuvPQ6ODU4hp-1">
          <mxGeometry relative="1" as="geometry">
            <Array as="points">
              <mxPoint x="80" y="93" />
              <mxPoint x="108" y="93" />
            </Array>
          </mxGeometry>
        </mxCell>
        <mxCell id="PmlArjGNWuvPQ6ODU4hp-7" style="edgeStyle=orthogonalEdgeStyle;rounded=0;orthogonalLoop=1;jettySize=auto;html=1;exitX=0;exitY=0;exitDx=0;exitDy=0;entryX=1;entryY=0;entryDx=0;entryDy=0;" edge="1" parent="1" source="PmlArjGNWuvPQ6ODU4hp-2" target="PmlArjGNWuvPQ6ODU4hp-2">
          <mxGeometry relative="1" as="geometry">
            <Array as="points">
              <mxPoint x="199" y="93" />
              <mxPoint x="227" y="93" />
            </Array>
          </mxGeometry>
        </mxCell>
        <mxCell id="PmlArjGNWuvPQ6ODU4hp-8" style="edgeStyle=orthogonalEdgeStyle;rounded=0;orthogonalLoop=1;jettySize=auto;html=1;exitX=0;exitY=0;exitDx=0;exitDy=0;entryX=1;entryY=0;entryDx=0;entryDy=0;" edge="1" parent="1" source="PmlArjGNWuvPQ6ODU4hp-3" target="PmlArjGNWuvPQ6ODU4hp-3">
          <mxGeometry relative="1" as="geometry">
            <Array as="points">
              <mxPoint x="324" y="95" />
              <mxPoint x="352" y="95" />
            </Array>
          </mxGeometry>
        </mxCell>
        <mxCell id="Cp81mix8aMYyxQzY6Yna-1" value="q1" style="ellipse;whiteSpace=wrap;html=1;" vertex="1" parent="1">
          <mxGeometry x="77.5" y="111.25" width="33" height="31.5" as="geometry" />
        </mxCell>
        <mxCell id="Cp81mix8aMYyxQzY6Yna-2" value="q2" style="ellipse;whiteSpace=wrap;html=1;" vertex="1" parent="1">
          <mxGeometry x="196.5" y="111.25" width="33" height="31.5" as="geometry" />
        </mxCell>
        <mxCell id="Cp81mix8aMYyxQzY6Yna-3" value="0" style="text;html=1;align=center;verticalAlign=middle;resizable=0;points=[];autosize=1;strokeColor=none;fillColor=none;" vertex="1" parent="1">
          <mxGeometry x="81.5" y="71" width="25" height="26" as="geometry" />
        </mxCell>
        <mxCell id="Cp81mix8aMYyxQzY6Yna-4" value="1" style="text;html=1;align=center;verticalAlign=middle;resizable=0;points=[];autosize=1;strokeColor=none;fillColor=none;" vertex="1" parent="1">
          <mxGeometry x="134" y="105" width="25" height="26" as="geometry" />
        </mxCell>
        <mxCell id="Cp81mix8aMYyxQzY6Yna-5" value="1" style="text;html=1;align=center;verticalAlign=middle;resizable=0;points=[];autosize=1;strokeColor=none;fillColor=none;" vertex="1" parent="1">
          <mxGeometry x="203" y="73" width="25" height="26" as="geometry" />
        </mxCell>
        <mxCell id="Cp81mix8aMYyxQzY6Yna-6" value="0" style="text;html=1;align=center;verticalAlign=middle;resizable=0;points=[];autosize=1;strokeColor=none;fillColor=none;" vertex="1" parent="1">
          <mxGeometry x="260" y="106" width="25" height="26" as="geometry" />
        </mxCell>
        <mxCell id="Cp81mix8aMYyxQzY6Yna-7" value="0,1" style="text;html=1;align=left;verticalAlign=middle;resizable=0;points=[];autosize=1;strokeColor=none;fillColor=none;" vertex="1" parent="1">
          <mxGeometry x="328" y="73" width="35" height="26" as="geometry" />
        </mxCell>
        <mxCell id="Cp81mix8aMYyxQzY6Yna-8" value="" style="endArrow=classic;html=1;rounded=0;entryX=0.016;entryY=0.574;entryDx=0;entryDy=0;entryPerimeter=0;" edge="1" parent="1">
          <mxGeometry width="50" height="50" relative="1" as="geometry">
            <mxPoint x="47.36" y="126.94" as="sourcePoint" />
            <mxPoint x="74.00000000000001" y="126.89999999999998" as="targetPoint" />
          </mxGeometry>
        </mxCell>
      </root>
    </mxGraphModel>
  </diagram>
  <diagram id="JBimJ4J8ucTdyXIsaYKj" name="78">
    <mxGraphModel dx="880" dy="419" grid="0" gridSize="10" guides="1" tooltips="1" connect="1" arrows="1" fold="1" page="1" pageScale="1" pageWidth="850" pageHeight="1100" math="0" shadow="0">
      <root>
        <mxCell id="0" />
        <mxCell id="1" parent="0" />
        <mxCell id="kUFiC_U4ZHmrqGWVCvvI-3" style="edgeStyle=orthogonalEdgeStyle;rounded=0;orthogonalLoop=1;jettySize=auto;html=1;exitX=1;exitY=0;exitDx=0;exitDy=0;entryX=0;entryY=0;entryDx=0;entryDy=0;" edge="1" parent="1" source="kUFiC_U4ZHmrqGWVCvvI-1" target="kUFiC_U4ZHmrqGWVCvvI-2">
          <mxGeometry relative="1" as="geometry" />
        </mxCell>
        <mxCell id="kUFiC_U4ZHmrqGWVCvvI-4" style="edgeStyle=orthogonalEdgeStyle;rounded=0;orthogonalLoop=1;jettySize=auto;html=1;exitX=1;exitY=1;exitDx=0;exitDy=0;entryX=0;entryY=1;entryDx=0;entryDy=0;" edge="1" parent="1" source="kUFiC_U4ZHmrqGWVCvvI-1" target="kUFiC_U4ZHmrqGWVCvvI-2">
          <mxGeometry relative="1" as="geometry" />
        </mxCell>
        <mxCell id="kUFiC_U4ZHmrqGWVCvvI-1" value="A" style="ellipse;whiteSpace=wrap;html=1;" vertex="1" parent="1">
          <mxGeometry x="188" y="126" width="40" height="40" as="geometry" />
        </mxCell>
        <mxCell id="kUFiC_U4ZHmrqGWVCvvI-2" value="B" style="ellipse;whiteSpace=wrap;html=1;" vertex="1" parent="1">
          <mxGeometry x="326" y="126" width="40" height="40" as="geometry" />
        </mxCell>
        <mxCell id="kUFiC_U4ZHmrqGWVCvvI-5" value="a" style="text;html=1;align=center;verticalAlign=middle;resizable=0;points=[];autosize=1;strokeColor=none;fillColor=none;" vertex="1" parent="1">
          <mxGeometry x="265" y="107" width="25" height="26" as="geometry" />
        </mxCell>
        <mxCell id="kUFiC_U4ZHmrqGWVCvvI-6" value="b" style="text;html=1;align=center;verticalAlign=middle;resizable=0;points=[];autosize=1;strokeColor=none;fillColor=none;" vertex="1" parent="1">
          <mxGeometry x="265" y="164" width="25" height="26" as="geometry" />
        </mxCell>
        <mxCell id="kUFiC_U4ZHmrqGWVCvvI-7" style="edgeStyle=orthogonalEdgeStyle;rounded=0;orthogonalLoop=1;jettySize=auto;html=1;exitX=1;exitY=0.5;exitDx=0;exitDy=0;entryX=0;entryY=0.5;entryDx=0;entryDy=0;" edge="1" parent="1" source="kUFiC_U4ZHmrqGWVCvvI-9" target="kUFiC_U4ZHmrqGWVCvvI-10">
          <mxGeometry relative="1" as="geometry" />
        </mxCell>
        <mxCell id="kUFiC_U4ZHmrqGWVCvvI-9" value="A" style="ellipse;whiteSpace=wrap;html=1;" vertex="1" parent="1">
          <mxGeometry x="419" y="126" width="40" height="40" as="geometry" />
        </mxCell>
        <mxCell id="kUFiC_U4ZHmrqGWVCvvI-10" value="B" style="ellipse;whiteSpace=wrap;html=1;" vertex="1" parent="1">
          <mxGeometry x="557" y="126" width="40" height="40" as="geometry" />
        </mxCell>
        <mxCell id="kUFiC_U4ZHmrqGWVCvvI-11" value="a,b" style="text;html=1;align=center;verticalAlign=middle;resizable=0;points=[];autosize=1;strokeColor=none;fillColor=none;" vertex="1" parent="1">
          <mxGeometry x="481" y="117" width="35" height="26" as="geometry" />
        </mxCell>
        <mxCell id="kUFiC_U4ZHmrqGWVCvvI-13" value="or" style="text;html=1;align=center;verticalAlign=middle;resizable=0;points=[];autosize=1;strokeColor=none;fillColor=none;" vertex="1" parent="1">
          <mxGeometry x="378" y="133" width="29" height="26" as="geometry" />
        </mxCell>
        <mxCell id="kUFiC_U4ZHmrqGWVCvvI-17" style="edgeStyle=orthogonalEdgeStyle;rounded=0;orthogonalLoop=1;jettySize=auto;html=1;exitX=1;exitY=0.5;exitDx=0;exitDy=0;" edge="1" parent="1" source="kUFiC_U4ZHmrqGWVCvvI-14" target="kUFiC_U4ZHmrqGWVCvvI-15">
          <mxGeometry relative="1" as="geometry" />
        </mxCell>
        <mxCell id="kUFiC_U4ZHmrqGWVCvvI-14" value="A" style="ellipse;whiteSpace=wrap;html=1;" vertex="1" parent="1">
          <mxGeometry x="188" y="259" width="40" height="40" as="geometry" />
        </mxCell>
        <mxCell id="kUFiC_U4ZHmrqGWVCvvI-18" style="edgeStyle=orthogonalEdgeStyle;rounded=0;orthogonalLoop=1;jettySize=auto;html=1;exitX=1;exitY=0.5;exitDx=0;exitDy=0;entryX=0;entryY=0.5;entryDx=0;entryDy=0;" edge="1" parent="1" source="kUFiC_U4ZHmrqGWVCvvI-15" target="kUFiC_U4ZHmrqGWVCvvI-16">
          <mxGeometry relative="1" as="geometry" />
        </mxCell>
        <mxCell id="kUFiC_U4ZHmrqGWVCvvI-15" value="B" style="ellipse;whiteSpace=wrap;html=1;" vertex="1" parent="1">
          <mxGeometry x="330" y="259" width="40" height="40" as="geometry" />
        </mxCell>
        <mxCell id="kUFiC_U4ZHmrqGWVCvvI-16" value="C" style="ellipse;whiteSpace=wrap;html=1;" vertex="1" parent="1">
          <mxGeometry x="461" y="259" width="40" height="40" as="geometry" />
        </mxCell>
        <mxCell id="kUFiC_U4ZHmrqGWVCvvI-19" value="a" style="text;html=1;align=center;verticalAlign=middle;resizable=0;points=[];autosize=1;strokeColor=none;fillColor=none;" vertex="1" parent="1">
          <mxGeometry x="262" y="258" width="25" height="26" as="geometry" />
        </mxCell>
        <mxCell id="kUFiC_U4ZHmrqGWVCvvI-20" value="b" style="text;html=1;align=center;verticalAlign=middle;resizable=0;points=[];autosize=1;strokeColor=none;fillColor=none;" vertex="1" parent="1">
          <mxGeometry x="400" y="258" width="25" height="26" as="geometry" />
        </mxCell>
        <mxCell id="kUFiC_U4ZHmrqGWVCvvI-21" value="(a . b)" style="text;html=1;align=center;verticalAlign=middle;resizable=0;points=[];autosize=1;strokeColor=none;fillColor=none;" vertex="1" parent="1">
          <mxGeometry x="98" y="181" width="49" height="26" as="geometry" />
        </mxCell>
        <mxCell id="kUFiC_U4ZHmrqGWVCvvI-22" value="A" style="ellipse;whiteSpace=wrap;html=1;" vertex="1" parent="1">
          <mxGeometry x="612" y="308" width="40" height="40" as="geometry" />
        </mxCell>
        <mxCell id="kUFiC_U4ZHmrqGWVCvvI-23" style="edgeStyle=orthogonalEdgeStyle;rounded=0;orthogonalLoop=1;jettySize=auto;html=1;exitX=0;exitY=0;exitDx=0;exitDy=0;entryX=1;entryY=0;entryDx=0;entryDy=0;" edge="1" parent="1" source="kUFiC_U4ZHmrqGWVCvvI-22" target="kUFiC_U4ZHmrqGWVCvvI-22">
          <mxGeometry relative="1" as="geometry">
            <Array as="points">
              <mxPoint x="618" y="288" />
              <mxPoint x="646" y="288" />
            </Array>
          </mxGeometry>
        </mxCell>
        <mxCell id="kUFiC_U4ZHmrqGWVCvvI-24" value="a" style="text;html=1;align=center;verticalAlign=middle;resizable=0;points=[];autosize=1;strokeColor=none;fillColor=none;" vertex="1" parent="1">
          <mxGeometry x="619.5" y="268" width="25" height="26" as="geometry" />
        </mxCell>
      </root>
    </mxGraphModel>
  </diagram>
  <diagram id="3A3pYCjzjkDnUmbOs1TO" name="79">
    <mxGraphModel dx="607" dy="289" grid="0" gridSize="10" guides="1" tooltips="1" connect="1" arrows="1" fold="1" page="1" pageScale="1" pageWidth="850" pageHeight="1100" math="0" shadow="0">
      <root>
        <mxCell id="0" />
        <mxCell id="1" parent="0" />
        <mxCell id="492K6nq0Ax62Sd2I6q3R-4" style="edgeStyle=orthogonalEdgeStyle;rounded=0;orthogonalLoop=1;jettySize=auto;html=1;exitX=1;exitY=0.5;exitDx=0;exitDy=0;entryX=0;entryY=0.5;entryDx=0;entryDy=0;" edge="1" parent="1" source="492K6nq0Ax62Sd2I6q3R-1" target="492K6nq0Ax62Sd2I6q3R-2">
          <mxGeometry relative="1" as="geometry" />
        </mxCell>
        <mxCell id="492K6nq0Ax62Sd2I6q3R-1" value="A" style="ellipse;whiteSpace=wrap;html=1;" vertex="1" parent="1">
          <mxGeometry x="130" y="130" width="40" height="40" as="geometry" />
        </mxCell>
        <mxCell id="492K6nq0Ax62Sd2I6q3R-5" style="edgeStyle=orthogonalEdgeStyle;rounded=0;orthogonalLoop=1;jettySize=auto;html=1;exitX=1;exitY=0.5;exitDx=0;exitDy=0;" edge="1" parent="1" source="492K6nq0Ax62Sd2I6q3R-2" target="492K6nq0Ax62Sd2I6q3R-3">
          <mxGeometry relative="1" as="geometry" />
        </mxCell>
        <mxCell id="492K6nq0Ax62Sd2I6q3R-2" value="B" style="ellipse;whiteSpace=wrap;html=1;" vertex="1" parent="1">
          <mxGeometry x="242" y="130" width="40" height="40" as="geometry" />
        </mxCell>
        <mxCell id="492K6nq0Ax62Sd2I6q3R-3" value="C" style="ellipse;whiteSpace=wrap;html=1;" vertex="1" parent="1">
          <mxGeometry x="354" y="130" width="40" height="40" as="geometry" />
        </mxCell>
        <mxCell id="492K6nq0Ax62Sd2I6q3R-6" style="edgeStyle=orthogonalEdgeStyle;rounded=0;orthogonalLoop=1;jettySize=auto;html=1;exitX=0;exitY=0;exitDx=0;exitDy=0;entryX=1;entryY=0;entryDx=0;entryDy=0;" edge="1" parent="1" source="492K6nq0Ax62Sd2I6q3R-2" target="492K6nq0Ax62Sd2I6q3R-2">
          <mxGeometry relative="1" as="geometry">
            <Array as="points">
              <mxPoint x="248" y="117" />
              <mxPoint x="276" y="117" />
            </Array>
          </mxGeometry>
        </mxCell>
        <mxCell id="492K6nq0Ax62Sd2I6q3R-7" value="a" style="text;html=1;align=center;verticalAlign=middle;resizable=0;points=[];autosize=1;strokeColor=none;fillColor=none;" vertex="1" parent="1">
          <mxGeometry x="250" y="97" width="25" height="26" as="geometry" />
        </mxCell>
        <mxCell id="492K6nq0Ax62Sd2I6q3R-8" value="b" style="text;html=1;align=center;verticalAlign=middle;resizable=0;points=[];autosize=1;strokeColor=none;fillColor=none;" vertex="1" parent="1">
          <mxGeometry x="194" y="127" width="25" height="26" as="geometry" />
        </mxCell>
        <mxCell id="492K6nq0Ax62Sd2I6q3R-9" value="b" style="text;html=1;align=center;verticalAlign=middle;resizable=0;points=[];autosize=1;strokeColor=none;fillColor=none;" vertex="1" parent="1">
          <mxGeometry x="302" y="126" width="25" height="26" as="geometry" />
        </mxCell>
        <mxCell id="lZGnz-oM7ufJ1_kscWVU-1" value="C" style="ellipse;whiteSpace=wrap;html=1;" vertex="1" parent="1">
          <mxGeometry x="357.5" y="134.25" width="33" height="31.5" as="geometry" />
        </mxCell>
        <mxCell id="lZGnz-oM7ufJ1_kscWVU-2" value="" style="endArrow=classic;html=1;rounded=0;" edge="1" parent="1" target="492K6nq0Ax62Sd2I6q3R-1">
          <mxGeometry width="50" height="50" relative="1" as="geometry">
            <mxPoint x="97" y="149" as="sourcePoint" />
            <mxPoint x="123" y="147" as="targetPoint" />
          </mxGeometry>
        </mxCell>
        <mxCell id="lZGnz-oM7ufJ1_kscWVU-4" value="A" style="ellipse;whiteSpace=wrap;html=1;" vertex="1" parent="1">
          <mxGeometry x="126" y="222" width="40" height="40" as="geometry" />
        </mxCell>
        <mxCell id="lZGnz-oM7ufJ1_kscWVU-5" style="edgeStyle=orthogonalEdgeStyle;rounded=0;orthogonalLoop=1;jettySize=auto;html=1;exitX=1;exitY=0.5;exitDx=0;exitDy=0;" edge="1" parent="1" source="lZGnz-oM7ufJ1_kscWVU-6" target="lZGnz-oM7ufJ1_kscWVU-7">
          <mxGeometry relative="1" as="geometry" />
        </mxCell>
        <mxCell id="lZGnz-oM7ufJ1_kscWVU-6" value="B" style="ellipse;whiteSpace=wrap;html=1;" vertex="1" parent="1">
          <mxGeometry x="242" y="222" width="40" height="40" as="geometry" />
        </mxCell>
        <mxCell id="lZGnz-oM7ufJ1_kscWVU-7" value="C" style="ellipse;whiteSpace=wrap;html=1;" vertex="1" parent="1">
          <mxGeometry x="354" y="222" width="40" height="40" as="geometry" />
        </mxCell>
        <mxCell id="lZGnz-oM7ufJ1_kscWVU-10" value="a" style="text;html=1;align=center;verticalAlign=middle;resizable=0;points=[];autosize=1;strokeColor=none;fillColor=none;" vertex="1" parent="1">
          <mxGeometry x="186" y="222" width="25" height="26" as="geometry" />
        </mxCell>
        <mxCell id="lZGnz-oM7ufJ1_kscWVU-11" value="c" style="text;html=1;align=center;verticalAlign=middle;resizable=0;points=[];autosize=1;strokeColor=none;fillColor=none;" vertex="1" parent="1">
          <mxGeometry x="303" y="218" width="24" height="26" as="geometry" />
        </mxCell>
        <mxCell id="lZGnz-oM7ufJ1_kscWVU-12" value="C" style="ellipse;whiteSpace=wrap;html=1;" vertex="1" parent="1">
          <mxGeometry x="357.5" y="226.25" width="33" height="31.5" as="geometry" />
        </mxCell>
        <mxCell id="lZGnz-oM7ufJ1_kscWVU-13" value="" style="endArrow=classic;html=1;rounded=0;" edge="1" parent="1" target="lZGnz-oM7ufJ1_kscWVU-4">
          <mxGeometry width="50" height="50" relative="1" as="geometry">
            <mxPoint x="97" y="241" as="sourcePoint" />
            <mxPoint x="123" y="239" as="targetPoint" />
          </mxGeometry>
        </mxCell>
        <mxCell id="lZGnz-oM7ufJ1_kscWVU-14" style="edgeStyle=orthogonalEdgeStyle;rounded=0;orthogonalLoop=1;jettySize=auto;html=1;exitX=1;exitY=1;exitDx=0;exitDy=0;entryX=0;entryY=1;entryDx=0;entryDy=0;" edge="1" parent="1" source="lZGnz-oM7ufJ1_kscWVU-4" target="lZGnz-oM7ufJ1_kscWVU-6">
          <mxGeometry relative="1" as="geometry">
            <mxPoint x="235" y="253" as="targetPoint" />
          </mxGeometry>
        </mxCell>
        <mxCell id="lZGnz-oM7ufJ1_kscWVU-15" style="edgeStyle=orthogonalEdgeStyle;rounded=0;orthogonalLoop=1;jettySize=auto;html=1;exitX=1;exitY=0.5;exitDx=0;exitDy=0;" edge="1" parent="1" source="lZGnz-oM7ufJ1_kscWVU-4" target="lZGnz-oM7ufJ1_kscWVU-6">
          <mxGeometry relative="1" as="geometry">
            <mxPoint x="163" y="237" as="sourcePoint" />
            <mxPoint x="239" y="236" as="targetPoint" />
          </mxGeometry>
        </mxCell>
        <mxCell id="lZGnz-oM7ufJ1_kscWVU-16" value="b" style="text;html=1;align=center;verticalAlign=middle;resizable=0;points=[];autosize=1;strokeColor=none;fillColor=none;" vertex="1" parent="1">
          <mxGeometry x="186" y="252" width="25" height="26" as="geometry" />
        </mxCell>
        <mxCell id="lZGnz-oM7ufJ1_kscWVU-17" value="A" style="ellipse;whiteSpace=wrap;html=1;" vertex="1" parent="1">
          <mxGeometry x="122.5" y="347" width="40" height="40" as="geometry" />
        </mxCell>
        <mxCell id="lZGnz-oM7ufJ1_kscWVU-19" value="B" style="ellipse;whiteSpace=wrap;html=1;" vertex="1" parent="1">
          <mxGeometry x="238.5" y="347" width="40" height="40" as="geometry" />
        </mxCell>
        <mxCell id="lZGnz-oM7ufJ1_kscWVU-28" style="edgeStyle=orthogonalEdgeStyle;rounded=0;orthogonalLoop=1;jettySize=auto;html=1;exitX=1;exitY=0;exitDx=0;exitDy=0;entryX=1;entryY=1;entryDx=0;entryDy=0;" edge="1" parent="1" source="lZGnz-oM7ufJ1_kscWVU-20" target="lZGnz-oM7ufJ1_kscWVU-19">
          <mxGeometry relative="1" as="geometry">
            <mxPoint x="272.7307692307692" y="429.7692307692308" as="targetPoint" />
          </mxGeometry>
        </mxCell>
        <mxCell id="lZGnz-oM7ufJ1_kscWVU-20" value="C" style="ellipse;whiteSpace=wrap;html=1;" vertex="1" parent="1">
          <mxGeometry x="238.5" y="460" width="40" height="40" as="geometry" />
        </mxCell>
        <mxCell id="lZGnz-oM7ufJ1_kscWVU-21" value="a" style="text;html=1;align=center;verticalAlign=middle;resizable=0;points=[];autosize=1;strokeColor=none;fillColor=none;" vertex="1" parent="1">
          <mxGeometry x="182.5" y="347" width="25" height="26" as="geometry" />
        </mxCell>
        <mxCell id="lZGnz-oM7ufJ1_kscWVU-22" value="c" style="text;html=1;align=center;verticalAlign=middle;resizable=0;points=[];autosize=1;strokeColor=none;fillColor=none;" vertex="1" parent="1">
          <mxGeometry x="269" y="408" width="24" height="26" as="geometry" />
        </mxCell>
        <mxCell id="lZGnz-oM7ufJ1_kscWVU-23" value="B" style="ellipse;whiteSpace=wrap;html=1;" vertex="1" parent="1">
          <mxGeometry x="242" y="351.25" width="33" height="31.5" as="geometry" />
        </mxCell>
        <mxCell id="lZGnz-oM7ufJ1_kscWVU-24" value="" style="endArrow=classic;html=1;rounded=0;" edge="1" parent="1" target="lZGnz-oM7ufJ1_kscWVU-17">
          <mxGeometry width="50" height="50" relative="1" as="geometry">
            <mxPoint x="93.5" y="366" as="sourcePoint" />
            <mxPoint x="119.5" y="364" as="targetPoint" />
          </mxGeometry>
        </mxCell>
        <mxCell id="lZGnz-oM7ufJ1_kscWVU-25" style="edgeStyle=orthogonalEdgeStyle;rounded=0;orthogonalLoop=1;jettySize=auto;html=1;entryX=0;entryY=0;entryDx=0;entryDy=0;exitX=0;exitY=1;exitDx=0;exitDy=0;" edge="1" parent="1" source="lZGnz-oM7ufJ1_kscWVU-19" target="lZGnz-oM7ufJ1_kscWVU-20">
          <mxGeometry relative="1" as="geometry">
            <mxPoint x="231.5" y="378" as="targetPoint" />
            <mxPoint x="232" y="404" as="sourcePoint" />
          </mxGeometry>
        </mxCell>
        <mxCell id="lZGnz-oM7ufJ1_kscWVU-26" style="edgeStyle=orthogonalEdgeStyle;rounded=0;orthogonalLoop=1;jettySize=auto;html=1;exitX=1;exitY=0.5;exitDx=0;exitDy=0;" edge="1" parent="1" source="lZGnz-oM7ufJ1_kscWVU-17" target="lZGnz-oM7ufJ1_kscWVU-19">
          <mxGeometry relative="1" as="geometry">
            <mxPoint x="159.5" y="362" as="sourcePoint" />
            <mxPoint x="235.5" y="361" as="targetPoint" />
          </mxGeometry>
        </mxCell>
        <mxCell id="lZGnz-oM7ufJ1_kscWVU-27" value="b" style="text;html=1;align=center;verticalAlign=middle;resizable=0;points=[];autosize=1;strokeColor=none;fillColor=none;" vertex="1" parent="1">
          <mxGeometry x="223" y="415" width="25" height="26" as="geometry" />
        </mxCell>
      </root>
    </mxGraphModel>
  </diagram>
  <diagram id="NwES9fyBbMxyJLt5RvXR" name="80">
    <mxGraphModel dx="733" dy="349" grid="0" gridSize="10" guides="1" tooltips="1" connect="1" arrows="1" fold="1" page="1" pageScale="1" pageWidth="850" pageHeight="1100" math="0" shadow="0">
      <root>
        <mxCell id="0" />
        <mxCell id="1" parent="0" />
        <mxCell id="nONJvJnkGbiXsBPCcZWT-8" style="edgeStyle=orthogonalEdgeStyle;rounded=0;orthogonalLoop=1;jettySize=auto;html=1;exitX=1;exitY=0.5;exitDx=0;exitDy=0;entryX=0;entryY=0.5;entryDx=0;entryDy=0;" edge="1" parent="1" source="nONJvJnkGbiXsBPCcZWT-1" target="nONJvJnkGbiXsBPCcZWT-2">
          <mxGeometry relative="1" as="geometry" />
        </mxCell>
        <mxCell id="nONJvJnkGbiXsBPCcZWT-1" value="1" style="ellipse;whiteSpace=wrap;html=1;" vertex="1" parent="1">
          <mxGeometry x="99" y="114" width="40" height="40" as="geometry" />
        </mxCell>
        <mxCell id="nONJvJnkGbiXsBPCcZWT-9" style="edgeStyle=orthogonalEdgeStyle;rounded=0;orthogonalLoop=1;jettySize=auto;html=1;exitX=1;exitY=0.5;exitDx=0;exitDy=0;entryX=0;entryY=0.5;entryDx=0;entryDy=0;" edge="1" parent="1" source="nONJvJnkGbiXsBPCcZWT-2" target="nONJvJnkGbiXsBPCcZWT-3">
          <mxGeometry relative="1" as="geometry" />
        </mxCell>
        <mxCell id="nONJvJnkGbiXsBPCcZWT-2" value="2" style="ellipse;whiteSpace=wrap;html=1;" vertex="1" parent="1">
          <mxGeometry x="216" y="114" width="40" height="40" as="geometry" />
        </mxCell>
        <mxCell id="nONJvJnkGbiXsBPCcZWT-10" style="edgeStyle=orthogonalEdgeStyle;rounded=0;orthogonalLoop=1;jettySize=auto;html=1;exitX=1;exitY=0.5;exitDx=0;exitDy=0;entryX=0;entryY=0.5;entryDx=0;entryDy=0;" edge="1" parent="1" source="nONJvJnkGbiXsBPCcZWT-3" target="nONJvJnkGbiXsBPCcZWT-4">
          <mxGeometry relative="1" as="geometry" />
        </mxCell>
        <mxCell id="nONJvJnkGbiXsBPCcZWT-3" value="3" style="ellipse;whiteSpace=wrap;html=1;" vertex="1" parent="1">
          <mxGeometry x="316" y="114" width="40" height="40" as="geometry" />
        </mxCell>
        <mxCell id="nONJvJnkGbiXsBPCcZWT-4" value="4" style="ellipse;whiteSpace=wrap;html=1;" vertex="1" parent="1">
          <mxGeometry x="425" y="114" width="40" height="40" as="geometry" />
        </mxCell>
        <mxCell id="nONJvJnkGbiXsBPCcZWT-7" style="edgeStyle=orthogonalEdgeStyle;rounded=0;orthogonalLoop=1;jettySize=auto;html=1;exitX=1;exitY=0.5;exitDx=0;exitDy=0;entryX=0;entryY=0.5;entryDx=0;entryDy=0;" edge="1" parent="1" source="nONJvJnkGbiXsBPCcZWT-5" target="nONJvJnkGbiXsBPCcZWT-6">
          <mxGeometry relative="1" as="geometry" />
        </mxCell>
        <mxCell id="nONJvJnkGbiXsBPCcZWT-5" value="5" style="ellipse;whiteSpace=wrap;html=1;" vertex="1" parent="1">
          <mxGeometry x="158" y="226" width="40" height="40" as="geometry" />
        </mxCell>
        <mxCell id="nONJvJnkGbiXsBPCcZWT-6" value="6" style="ellipse;whiteSpace=wrap;html=1;" vertex="1" parent="1">
          <mxGeometry x="291" y="226" width="40" height="40" as="geometry" />
        </mxCell>
        <mxCell id="nONJvJnkGbiXsBPCcZWT-12" value="" style="endArrow=classic;html=1;rounded=0;exitX=0.5;exitY=1;exitDx=0;exitDy=0;entryX=0;entryY=0;entryDx=0;entryDy=0;" edge="1" parent="1" source="nONJvJnkGbiXsBPCcZWT-1" target="nONJvJnkGbiXsBPCcZWT-5">
          <mxGeometry width="50" height="50" relative="1" as="geometry">
            <mxPoint x="255" y="213" as="sourcePoint" />
            <mxPoint x="305" y="163" as="targetPoint" />
          </mxGeometry>
        </mxCell>
        <mxCell id="nONJvJnkGbiXsBPCcZWT-13" style="edgeStyle=orthogonalEdgeStyle;rounded=0;orthogonalLoop=1;jettySize=auto;html=1;exitX=0;exitY=0;exitDx=0;exitDy=0;entryX=1;entryY=0;entryDx=0;entryDy=0;" edge="1" parent="1" source="nONJvJnkGbiXsBPCcZWT-1" target="nONJvJnkGbiXsBPCcZWT-1">
          <mxGeometry relative="1" as="geometry">
            <Array as="points">
              <mxPoint x="105" y="100" />
              <mxPoint x="133" y="100" />
            </Array>
          </mxGeometry>
        </mxCell>
        <mxCell id="nONJvJnkGbiXsBPCcZWT-14" style="edgeStyle=orthogonalEdgeStyle;rounded=0;orthogonalLoop=1;jettySize=auto;html=1;exitX=0;exitY=1;exitDx=0;exitDy=0;entryX=1;entryY=1;entryDx=0;entryDy=0;" edge="1" parent="1" source="nONJvJnkGbiXsBPCcZWT-5" target="nONJvJnkGbiXsBPCcZWT-5">
          <mxGeometry relative="1" as="geometry">
            <Array as="points">
              <mxPoint x="164" y="280" />
              <mxPoint x="192" y="280" />
            </Array>
          </mxGeometry>
        </mxCell>
        <mxCell id="nONJvJnkGbiXsBPCcZWT-15" value="a" style="text;html=1;align=center;verticalAlign=middle;resizable=0;points=[];autosize=1;strokeColor=none;fillColor=none;" vertex="1" parent="1">
          <mxGeometry x="158" y="112" width="25" height="26" as="geometry" />
        </mxCell>
        <mxCell id="nONJvJnkGbiXsBPCcZWT-16" value="b" style="text;html=1;align=center;verticalAlign=middle;resizable=0;points=[];autosize=1;strokeColor=none;fillColor=none;" vertex="1" parent="1">
          <mxGeometry x="271" y="113" width="25" height="26" as="geometry" />
        </mxCell>
        <mxCell id="nONJvJnkGbiXsBPCcZWT-17" value="b" style="text;html=1;align=center;verticalAlign=middle;resizable=0;points=[];autosize=1;strokeColor=none;fillColor=none;" vertex="1" parent="1">
          <mxGeometry x="376" y="112" width="25" height="26" as="geometry" />
        </mxCell>
        <mxCell id="nONJvJnkGbiXsBPCcZWT-18" value="a" style="text;html=1;align=center;verticalAlign=middle;resizable=0;points=[];autosize=1;strokeColor=none;fillColor=none;" vertex="1" parent="1">
          <mxGeometry x="124" y="184" width="25" height="26" as="geometry" />
        </mxCell>
        <mxCell id="nONJvJnkGbiXsBPCcZWT-20" value="b" style="text;html=1;align=center;verticalAlign=middle;resizable=0;points=[];autosize=1;strokeColor=none;fillColor=none;" vertex="1" parent="1">
          <mxGeometry x="231" y="240" width="25" height="26" as="geometry" />
        </mxCell>
        <mxCell id="nONJvJnkGbiXsBPCcZWT-21" value="a" style="text;html=1;align=center;verticalAlign=middle;resizable=0;points=[];autosize=1;strokeColor=none;fillColor=none;" vertex="1" parent="1">
          <mxGeometry x="168" y="273" width="25" height="26" as="geometry" />
        </mxCell>
        <mxCell id="nONJvJnkGbiXsBPCcZWT-22" value="a,b" style="text;html=1;align=center;verticalAlign=middle;resizable=0;points=[];autosize=1;strokeColor=none;fillColor=none;" vertex="1" parent="1">
          <mxGeometry x="109" y="77" width="35" height="26" as="geometry" />
        </mxCell>
      </root>
    </mxGraphModel>
  </diagram>
  <diagram id="9-nE8_9Bv4TlaJk1uhVj" name="81">
    <mxGraphModel dx="880" dy="419" grid="0" gridSize="10" guides="1" tooltips="1" connect="1" arrows="1" fold="1" page="1" pageScale="1" pageWidth="850" pageHeight="1100" math="0" shadow="0">
      <root>
        <mxCell id="0" />
        <mxCell id="1" parent="0" />
        <mxCell id="rbVDXaBb5G1LYhDyB6S5-4" style="edgeStyle=orthogonalEdgeStyle;rounded=0;orthogonalLoop=1;jettySize=auto;html=1;exitX=1;exitY=0;exitDx=0;exitDy=0;entryX=0;entryY=0;entryDx=0;entryDy=0;" edge="1" parent="1" source="rbVDXaBb5G1LYhDyB6S5-1" target="rbVDXaBb5G1LYhDyB6S5-2">
          <mxGeometry relative="1" as="geometry" />
        </mxCell>
        <mxCell id="rbVDXaBb5G1LYhDyB6S5-5" style="edgeStyle=orthogonalEdgeStyle;rounded=0;orthogonalLoop=1;jettySize=auto;html=1;exitX=1;exitY=1;exitDx=0;exitDy=0;entryX=0;entryY=1;entryDx=0;entryDy=0;" edge="1" parent="1" source="rbVDXaBb5G1LYhDyB6S5-1" target="rbVDXaBb5G1LYhDyB6S5-2">
          <mxGeometry relative="1" as="geometry" />
        </mxCell>
        <mxCell id="rbVDXaBb5G1LYhDyB6S5-1" value="" style="ellipse;whiteSpace=wrap;html=1;" vertex="1" parent="1">
          <mxGeometry x="140" y="145" width="40" height="40" as="geometry" />
        </mxCell>
        <mxCell id="rbVDXaBb5G1LYhDyB6S5-2" value="" style="ellipse;whiteSpace=wrap;html=1;" vertex="1" parent="1">
          <mxGeometry x="283" y="145" width="40" height="40" as="geometry" />
        </mxCell>
        <mxCell id="rbVDXaBb5G1LYhDyB6S5-3" value="" style="endArrow=classic;html=1;rounded=0;entryX=0;entryY=0.5;entryDx=0;entryDy=0;" edge="1" parent="1" target="rbVDXaBb5G1LYhDyB6S5-1">
          <mxGeometry width="50" height="50" relative="1" as="geometry">
            <mxPoint x="98" y="165" as="sourcePoint" />
            <mxPoint x="478" y="200" as="targetPoint" />
          </mxGeometry>
        </mxCell>
        <mxCell id="RjpcnTQy38I3n3KWlGs2-1" value="" style="ellipse;whiteSpace=wrap;html=1;" vertex="1" parent="1">
          <mxGeometry x="286.5" y="149.25" width="33" height="31.5" as="geometry" />
        </mxCell>
        <mxCell id="RjpcnTQy38I3n3KWlGs2-2" value="10" style="text;html=1;align=center;verticalAlign=middle;resizable=0;points=[];autosize=1;strokeColor=none;fillColor=none;" vertex="1" parent="1">
          <mxGeometry x="209" y="128" width="31" height="26" as="geometry" />
        </mxCell>
        <mxCell id="RjpcnTQy38I3n3KWlGs2-3" value="(0 + 11)0* 1" style="text;html=1;align=center;verticalAlign=middle;resizable=0;points=[];autosize=1;strokeColor=none;fillColor=none;" vertex="1" parent="1">
          <mxGeometry x="184.5" y="180.75" width="80" height="26" as="geometry" />
        </mxCell>
        <mxCell id="RjpcnTQy38I3n3KWlGs2-17" style="edgeStyle=orthogonalEdgeStyle;rounded=0;orthogonalLoop=1;jettySize=auto;html=1;exitX=1;exitY=0.5;exitDx=0;exitDy=0;" edge="1" parent="1" source="RjpcnTQy38I3n3KWlGs2-5" target="RjpcnTQy38I3n3KWlGs2-6">
          <mxGeometry relative="1" as="geometry" />
        </mxCell>
        <mxCell id="RjpcnTQy38I3n3KWlGs2-18" style="edgeStyle=orthogonalEdgeStyle;rounded=0;orthogonalLoop=1;jettySize=auto;html=1;exitX=0;exitY=1;exitDx=0;exitDy=0;entryX=0;entryY=0;entryDx=0;entryDy=0;" edge="1" parent="1" source="RjpcnTQy38I3n3KWlGs2-5" target="RjpcnTQy38I3n3KWlGs2-9">
          <mxGeometry relative="1" as="geometry" />
        </mxCell>
        <mxCell id="RjpcnTQy38I3n3KWlGs2-19" style="edgeStyle=orthogonalEdgeStyle;rounded=0;orthogonalLoop=1;jettySize=auto;html=1;exitX=1;exitY=1;exitDx=0;exitDy=0;entryX=1;entryY=0;entryDx=0;entryDy=0;" edge="1" parent="1" source="RjpcnTQy38I3n3KWlGs2-5" target="RjpcnTQy38I3n3KWlGs2-9">
          <mxGeometry relative="1" as="geometry" />
        </mxCell>
        <mxCell id="RjpcnTQy38I3n3KWlGs2-5" value="" style="ellipse;whiteSpace=wrap;html=1;" vertex="1" parent="1">
          <mxGeometry x="423" y="166.75" width="40" height="40" as="geometry" />
        </mxCell>
        <mxCell id="RjpcnTQy38I3n3KWlGs2-13" style="edgeStyle=orthogonalEdgeStyle;rounded=0;orthogonalLoop=1;jettySize=auto;html=1;exitX=1;exitY=0.5;exitDx=0;exitDy=0;entryX=0.5;entryY=0;entryDx=0;entryDy=0;" edge="1" parent="1" source="RjpcnTQy38I3n3KWlGs2-6" target="RjpcnTQy38I3n3KWlGs2-7">
          <mxGeometry relative="1" as="geometry" />
        </mxCell>
        <mxCell id="RjpcnTQy38I3n3KWlGs2-6" value="" style="ellipse;whiteSpace=wrap;html=1;" vertex="1" parent="1">
          <mxGeometry x="548" y="166.75" width="40" height="40" as="geometry" />
        </mxCell>
        <mxCell id="RjpcnTQy38I3n3KWlGs2-7" value="" style="ellipse;whiteSpace=wrap;html=1;" vertex="1" parent="1">
          <mxGeometry x="661" y="233" width="40" height="40" as="geometry" />
        </mxCell>
        <mxCell id="RjpcnTQy38I3n3KWlGs2-8" value="" style="ellipse;whiteSpace=wrap;html=1;" vertex="1" parent="1">
          <mxGeometry x="548" y="303" width="40" height="40" as="geometry" />
        </mxCell>
        <mxCell id="RjpcnTQy38I3n3KWlGs2-15" style="edgeStyle=orthogonalEdgeStyle;rounded=0;orthogonalLoop=1;jettySize=auto;html=1;exitX=1;exitY=0.5;exitDx=0;exitDy=0;entryX=0;entryY=0.5;entryDx=0;entryDy=0;" edge="1" parent="1" source="RjpcnTQy38I3n3KWlGs2-9" target="RjpcnTQy38I3n3KWlGs2-8">
          <mxGeometry relative="1" as="geometry" />
        </mxCell>
        <mxCell id="RjpcnTQy38I3n3KWlGs2-9" value="" style="ellipse;whiteSpace=wrap;html=1;" vertex="1" parent="1">
          <mxGeometry x="423" y="303" width="40" height="40" as="geometry" />
        </mxCell>
        <mxCell id="RjpcnTQy38I3n3KWlGs2-11" value="" style="endArrow=classic;html=1;rounded=0;entryX=0;entryY=0.5;entryDx=0;entryDy=0;" edge="1" parent="1" target="RjpcnTQy38I3n3KWlGs2-5">
          <mxGeometry width="50" height="50" relative="1" as="geometry">
            <mxPoint x="374" y="187" as="sourcePoint" />
            <mxPoint x="150" y="175" as="targetPoint" />
          </mxGeometry>
        </mxCell>
        <mxCell id="RjpcnTQy38I3n3KWlGs2-16" style="edgeStyle=orthogonalEdgeStyle;rounded=0;orthogonalLoop=1;jettySize=auto;html=1;exitX=1;exitY=0.5;exitDx=0;exitDy=0;entryX=0.535;entryY=0.945;entryDx=0;entryDy=0;entryPerimeter=0;" edge="1" parent="1" source="RjpcnTQy38I3n3KWlGs2-8" target="RjpcnTQy38I3n3KWlGs2-7">
          <mxGeometry relative="1" as="geometry" />
        </mxCell>
        <mxCell id="RjpcnTQy38I3n3KWlGs2-20" value="0" style="text;html=1;align=center;verticalAlign=middle;resizable=0;points=[];autosize=1;strokeColor=none;fillColor=none;" vertex="1" parent="1">
          <mxGeometry x="402" y="240" width="25" height="26" as="geometry" />
        </mxCell>
        <mxCell id="RjpcnTQy38I3n3KWlGs2-21" value="11" style="text;html=1;align=center;verticalAlign=middle;resizable=0;points=[];autosize=1;strokeColor=none;fillColor=none;" vertex="1" parent="1">
          <mxGeometry x="457" y="239" width="30" height="26" as="geometry" />
        </mxCell>
        <mxCell id="RjpcnTQy38I3n3KWlGs2-22" value="0*" style="text;html=1;align=center;verticalAlign=middle;resizable=0;points=[];autosize=1;strokeColor=none;fillColor=none;" vertex="1" parent="1">
          <mxGeometry x="484" y="320" width="29" height="26" as="geometry" />
        </mxCell>
        <mxCell id="RjpcnTQy38I3n3KWlGs2-23" value="1" style="text;html=1;align=center;verticalAlign=middle;resizable=0;points=[];autosize=1;strokeColor=none;fillColor=none;" vertex="1" parent="1">
          <mxGeometry x="627" y="321" width="25" height="26" as="geometry" />
        </mxCell>
        <mxCell id="RjpcnTQy38I3n3KWlGs2-24" value="0" style="text;html=1;align=center;verticalAlign=middle;resizable=0;points=[];autosize=1;strokeColor=none;fillColor=none;" vertex="1" parent="1">
          <mxGeometry x="612" y="162" width="25" height="26" as="geometry" />
        </mxCell>
        <mxCell id="RjpcnTQy38I3n3KWlGs2-25" value="11" style="text;html=1;align=center;verticalAlign=middle;resizable=0;points=[];autosize=1;strokeColor=none;fillColor=none;" vertex="1" parent="1">
          <mxGeometry x="480" y="164" width="30" height="26" as="geometry" />
        </mxCell>
        <mxCell id="RjpcnTQy38I3n3KWlGs2-26" value="" style="ellipse;whiteSpace=wrap;html=1;" vertex="1" parent="1">
          <mxGeometry x="664.5" y="237.25" width="33" height="31.5" as="geometry" />
        </mxCell>
        <mxCell id="RjpcnTQy38I3n3KWlGs2-32" style="edgeStyle=orthogonalEdgeStyle;rounded=0;orthogonalLoop=1;jettySize=auto;html=1;exitX=1;exitY=0.5;exitDx=0;exitDy=0;entryX=0;entryY=0.5;entryDx=0;entryDy=0;" edge="1" parent="1" source="RjpcnTQy38I3n3KWlGs2-27" target="RjpcnTQy38I3n3KWlGs2-28">
          <mxGeometry relative="1" as="geometry" />
        </mxCell>
        <mxCell id="RjpcnTQy38I3n3KWlGs2-35" style="edgeStyle=orthogonalEdgeStyle;rounded=0;orthogonalLoop=1;jettySize=auto;html=1;exitX=1;exitY=1;exitDx=0;exitDy=0;entryX=0.5;entryY=0;entryDx=0;entryDy=0;" edge="1" parent="1" source="RjpcnTQy38I3n3KWlGs2-27" target="RjpcnTQy38I3n3KWlGs2-31">
          <mxGeometry relative="1" as="geometry" />
        </mxCell>
        <mxCell id="RjpcnTQy38I3n3KWlGs2-37" style="edgeStyle=orthogonalEdgeStyle;rounded=0;orthogonalLoop=1;jettySize=auto;html=1;exitX=0;exitY=1;exitDx=0;exitDy=0;entryX=0;entryY=0;entryDx=0;entryDy=0;" edge="1" parent="1" source="RjpcnTQy38I3n3KWlGs2-27" target="RjpcnTQy38I3n3KWlGs2-30">
          <mxGeometry relative="1" as="geometry" />
        </mxCell>
        <mxCell id="RjpcnTQy38I3n3KWlGs2-27" value="A" style="ellipse;whiteSpace=wrap;html=1;" vertex="1" parent="1">
          <mxGeometry x="180" y="421" width="40" height="40" as="geometry" />
        </mxCell>
        <mxCell id="RjpcnTQy38I3n3KWlGs2-33" style="edgeStyle=orthogonalEdgeStyle;rounded=0;orthogonalLoop=1;jettySize=auto;html=1;exitX=1;exitY=0.5;exitDx=0;exitDy=0;" edge="1" parent="1" source="RjpcnTQy38I3n3KWlGs2-28" target="RjpcnTQy38I3n3KWlGs2-29">
          <mxGeometry relative="1" as="geometry" />
        </mxCell>
        <mxCell id="RjpcnTQy38I3n3KWlGs2-28" value="B" style="ellipse;whiteSpace=wrap;html=1;" vertex="1" parent="1">
          <mxGeometry x="339" y="421" width="40" height="40" as="geometry" />
        </mxCell>
        <mxCell id="RjpcnTQy38I3n3KWlGs2-29" value="" style="ellipse;whiteSpace=wrap;html=1;" vertex="1" parent="1">
          <mxGeometry x="413" y="519" width="40" height="40" as="geometry" />
        </mxCell>
        <mxCell id="RjpcnTQy38I3n3KWlGs2-34" style="edgeStyle=orthogonalEdgeStyle;rounded=0;orthogonalLoop=1;jettySize=auto;html=1;exitX=1;exitY=0.5;exitDx=0;exitDy=0;entryX=0.5;entryY=1;entryDx=0;entryDy=0;" edge="1" parent="1" source="RjpcnTQy38I3n3KWlGs2-30" target="RjpcnTQy38I3n3KWlGs2-29">
          <mxGeometry relative="1" as="geometry" />
        </mxCell>
        <mxCell id="RjpcnTQy38I3n3KWlGs2-30" value="C" style="ellipse;whiteSpace=wrap;html=1;" vertex="1" parent="1">
          <mxGeometry x="180" y="610" width="40" height="40" as="geometry" />
        </mxCell>
        <mxCell id="RjpcnTQy38I3n3KWlGs2-36" style="edgeStyle=orthogonalEdgeStyle;rounded=0;orthogonalLoop=1;jettySize=auto;html=1;exitX=0.5;exitY=1;exitDx=0;exitDy=0;" edge="1" parent="1" source="RjpcnTQy38I3n3KWlGs2-31" target="RjpcnTQy38I3n3KWlGs2-30">
          <mxGeometry relative="1" as="geometry" />
        </mxCell>
        <mxCell id="RjpcnTQy38I3n3KWlGs2-31" value="D" style="ellipse;whiteSpace=wrap;html=1;" vertex="1" parent="1">
          <mxGeometry x="224.5" y="519" width="40" height="40" as="geometry" />
        </mxCell>
        <mxCell id="RjpcnTQy38I3n3KWlGs2-38" style="edgeStyle=orthogonalEdgeStyle;rounded=0;orthogonalLoop=1;jettySize=auto;html=1;exitX=0;exitY=1;exitDx=0;exitDy=0;entryX=1;entryY=1;entryDx=0;entryDy=0;" edge="1" parent="1" source="RjpcnTQy38I3n3KWlGs2-30" target="RjpcnTQy38I3n3KWlGs2-30">
          <mxGeometry relative="1" as="geometry">
            <Array as="points">
              <mxPoint x="186" y="672" />
              <mxPoint x="214" y="672" />
            </Array>
          </mxGeometry>
        </mxCell>
        <mxCell id="RjpcnTQy38I3n3KWlGs2-39" value="C" style="ellipse;whiteSpace=wrap;html=1;" vertex="1" parent="1">
          <mxGeometry x="416.5" y="523.25" width="33" height="31.5" as="geometry" />
        </mxCell>
        <mxCell id="RjpcnTQy38I3n3KWlGs2-40" value="0" style="text;html=1;align=center;verticalAlign=middle;resizable=0;points=[];autosize=1;strokeColor=none;fillColor=none;" vertex="1" parent="1">
          <mxGeometry x="187.5" y="669" width="25" height="26" as="geometry" />
        </mxCell>
        <mxCell id="RjpcnTQy38I3n3KWlGs2-41" value="1" style="text;html=1;align=center;verticalAlign=middle;resizable=0;points=[];autosize=1;strokeColor=none;fillColor=none;" vertex="1" parent="1">
          <mxGeometry x="317" y="633" width="25" height="26" as="geometry" />
        </mxCell>
        <mxCell id="RjpcnTQy38I3n3KWlGs2-42" value="1" style="text;html=1;align=center;verticalAlign=middle;resizable=0;points=[];autosize=1;strokeColor=none;fillColor=none;" vertex="1" parent="1">
          <mxGeometry x="241" y="561" width="25" height="26" as="geometry" />
        </mxCell>
        <mxCell id="RjpcnTQy38I3n3KWlGs2-43" value="1" style="text;html=1;align=center;verticalAlign=middle;resizable=0;points=[];autosize=1;strokeColor=none;fillColor=none;" vertex="1" parent="1">
          <mxGeometry x="242" y="472" width="25" height="26" as="geometry" />
        </mxCell>
        <mxCell id="RjpcnTQy38I3n3KWlGs2-44" value="1" style="text;html=1;align=center;verticalAlign=middle;resizable=0;points=[];autosize=1;strokeColor=none;fillColor=none;" vertex="1" parent="1">
          <mxGeometry x="258" y="412" width="25" height="26" as="geometry" />
        </mxCell>
        <mxCell id="RjpcnTQy38I3n3KWlGs2-45" value="0" style="text;html=1;align=center;verticalAlign=middle;resizable=0;points=[];autosize=1;strokeColor=none;fillColor=none;" vertex="1" parent="1">
          <mxGeometry x="438" y="467" width="25" height="26" as="geometry" />
        </mxCell>
        <mxCell id="RjpcnTQy38I3n3KWlGs2-46" value="0" style="text;html=1;align=center;verticalAlign=middle;resizable=0;points=[];autosize=1;strokeColor=none;fillColor=none;" vertex="1" parent="1">
          <mxGeometry x="156" y="517" width="25" height="26" as="geometry" />
        </mxCell>
        <mxCell id="RjpcnTQy38I3n3KWlGs2-47" value="" style="endArrow=classic;html=1;rounded=0;entryX=0;entryY=0.475;entryDx=0;entryDy=0;entryPerimeter=0;" edge="1" parent="1" target="RjpcnTQy38I3n3KWlGs2-27">
          <mxGeometry width="50" height="50" relative="1" as="geometry">
            <mxPoint x="135" y="440" as="sourcePoint" />
            <mxPoint x="381" y="512" as="targetPoint" />
          </mxGeometry>
        </mxCell>
      </root>
    </mxGraphModel>
  </diagram>
</mxfile>
